<?xml version="1.0" encoding="utf-8"?>
<!-- Generator: Adobe Illustrator 24.3.0, SVG Export Plug-In . SVG Version: 6.00 Build 0)  -->
<svg version="1.1" id="Layer_1" xmlns="http://www.w3.org/2000/svg" xmlns:xlink="http://www.w3.org/1999/xlink" x="0px" y="0px"
	 viewBox="0 0 32 32" style="enable-background:new 0 0 32 32;" xml:space="preserve">
<style type="text/css">
	.st0{fill:#FFFFFF;}
</style>
<path class="st0" d="M31.5,5.8c-0.7,0.3-1.4,0.6-2.2,0.7c0.8-0.8,1.5-1.8,1.8-2.9l0,0c0.1-0.3-0.2-0.6-0.5-0.4l0,0
	c-1.1,0.6-2.2,1.1-3.4,1.4c-0.1,0-0.1,0-0.2,0c-0.2,0-0.4-0.1-0.6-0.2c-1.3-1.1-2.9-1.7-4.6-1.7c-0.7,0-1.5,0.1-2.2,0.3
	c-2.2,0.7-4,2.5-4.5,4.8c-0.2,0.9-0.3,1.7-0.2,2.5c0,0.1,0,0.2-0.1,0.2c0,0.1-0.1,0.1-0.2,0.1c0,0,0,0,0,0C9.8,10.2,5.4,7.8,2.3,4
	l0,0c-0.2-0.2-0.5-0.2-0.6,0l0,0c-0.6,1-0.9,2.2-0.9,3.5c0,1.9,0.8,3.6,2.1,4.9c-0.5-0.1-1.1-0.3-1.6-0.6l0,0
	c-0.2-0.1-0.5,0-0.5,0.3l0,0c0,2.8,1.6,5.3,4,6.4c0,0-0.1,0-0.1,0c-0.4,0-0.8,0-1.2-0.1l0,0c-0.3-0.1-0.5,0.2-0.4,0.5l0,0
	c0.8,2.5,2.9,4.3,5.5,4.7c-2.1,1.4-4.6,2.2-7.1,2.2l-0.8,0c-0.2,0-0.5,0.2-0.5,0.4c-0.1,0.2,0.1,0.5,0.3,0.6
	c2.9,1.7,6.2,2.6,9.5,2.6c2.9,0,5.7-0.6,8.1-1.7c2.3-1,4.3-2.5,5.9-4.5c1.6-1.8,2.8-3.8,3.6-6.1c0.8-2.2,1.2-4.5,1.2-6.7v-0.1
	c0-0.4,0.2-0.7,0.4-0.9c1.1-0.9,2-1.9,2.7-3l0,0C32.1,6,31.8,5.6,31.5,5.8L31.5,5.8z"/>
</svg>
