<?xml version="1.0" encoding="utf-8"?>
<!-- Generator: Adobe Illustrator 25.2.1, SVG Export Plug-In . SVG Version: 6.00 Build 0)  -->
<svg version="1.1" id="Layer_1" xmlns="http://www.w3.org/2000/svg" xmlns:xlink="http://www.w3.org/1999/xlink" x="0px" y="0px"
	 viewBox="0 0 589.2 279.3" style="enable-background:new 0 0 589.2 279.3;" xml:space="preserve">
<style type="text/css">
	.st0{fill:#00B2E2;}
	.st1{fill:#FFFFFF;}
</style>
<g>
	<path class="st0" d="M225.9,181.4c-1.9,3.3-3.8,6.5-5.8,9.8c-0.9,1.5-1.9,2.9-2.9,4.3c-0.5,0.7-0.9,1.4-1.4,2
		c-1.2,1.8-2.5,3.4-4.2,4.6c-1.2,0.9-2.5,1.5-4,1.8c-1.7,0.3-3.3,0.4-4.8-0.4c-1-0.5-2-0.9-3-1.3c-0.8-0.4-1.4-1-1.7-1.9
		c-0.8-2.5-1.3-5-1.2-7.7c0-0.7,0.1-1.3,0.2-2c0.2-1.5,0.6-3,0.7-4.5c0.1-1,0.4-1.8,0.5-2.8c0.1-0.9,0.1-1.9,0.3-2.8
		c0.2-1,0.4-1.9,0.7-2.8c0.6-2.1,1.1-4.1,1.7-6.2c0.7-2.4,1.5-4.8,2.2-7.2c0.3-1.2,0.5-2.5,0.8-3.7c0.8-0.6,1.5-1.3,1.9-2.4
		c0.2-0.8,0.8-1,1.6-0.8c0.3,0.1,0.6,0.2,0.8,0.1c1-0.4,1.9,0.1,2.8,0.5c1.1,0.5,2.2,0.9,3.2,1.5c0.6,0.4,1.2,0.9,1.2,1.8
		c0,1.8-0.1,3.5-0.5,5.2c-0.5,2-0.8,4-1.2,6c-0.3,1.1-0.6,2.1-0.9,3.2c-0.7,2.3-1.3,4.7-1.8,7c-0.3,1.6-0.7,3.2-1,4.8
		c-0.1,0.9-0.3,1.9-0.4,2.8c-0.2,1.4-0.3,2.8-0.4,4.3c0.9-0.6,1.6-1.2,2.1-2c0.5-0.7,0.8-1.5,1.3-2.3c0.7-1.1,1.3-2.4,2.2-3.3
		c0.2-0.2,0.4-0.4,0.5-0.7c0.7-1.6,1.7-3,2.5-4.5c0.7-1.4,1.3-2.9,2-4.4c0.6-1.2,1.2-2.3,1.8-3.4c1.5-3,2.9-6.1,4.1-9.2
		c0.1-0.4,0.3-0.7,0.5-1c0.8-1.2,1.1-2.6,1.6-3.9c0.3-0.8,0.7-1.5,1.1-2.2c0.1-0.2,0.3-0.4,0.3-0.6c0.1-0.6,0.3-1.1,0.9-1.4
		c0.2-0.1,0.3-0.5,0.5-0.9c0.8,0.3,1.5,1.5,2.5,0.1c1.2,1.3,2.5,2.3,3.9,3.2c0.1,0.3-0.3,0.8,0.3,1c0,0.2,0,0.4,0,0.8
		c0.4-0.1,0.7-0.2,1-0.3c0.5-0.1,0.8,0.1,0.9,0.7c0,0,0,0.1,0,0.1c0.1,2,0.3,3.9,0.2,5.9c-0.1,1.4-0.5,2.8-0.8,4.2
		c-0.3,1.5-0.8,2.9-1.1,4.4c-0.1,0.5,0,0.9,0,1.4c-0.5,0.2-0.1,0.6-0.2,1c-0.1,0.2-0.2,0.5-0.3,0.7c0,0.3,0,0.6,0,1
		c-0.2,0.8-0.3,1.6-0.5,2.4c-0.1,0.5-0.2,1-0.2,1.5c-0.3,2.7-0.4,5.3-0.2,8c0.1,1.2,0.4,2.5,0.7,3.7c0.1,0.5,0.4,0.9,0.7,1.3
		c0.3,0.4,0.5,0.9,0.5,1.4c0,0.4,0.1,0.7,0.4,0.9c0.8-0.5,1.5-0.9,2.2-1.4c1.3-0.8,2.3-2.1,3.2-3.3c1.7-2.2,3.2-4.7,4.5-7.2
		c0.7-1.3,1.3-2.7,1.6-4.1c0.1-0.6,0.5-1.1,0.8-1.7c1.1-2.3,1.8-4.8,2.6-7.2c0.3-1,0.8-1.9,1.2-2.9c0.4-0.9,0.8-1.8,1.2-2.7
		c0.1-0.3,0.2-0.6,0.5-0.8c0.6-0.5,0.9-1.2,1.2-1.9c0.8-1.9,2.1-3.4,3.4-5c0.8-0.9,1.6-1.8,2-2.9c0.4-0.8,0.8-1,1.5-1
		c0.1,0,0.2,0,0.4,0c0.3-0.8,1-1.1,1.7-1.4c0.4-0.2,0.8-0.3,1.2-0.1c0.1,0.1,0.3,0.1,0.4,0.1c1-0.5,2.1-0.1,3.1-0.2
		c0.9,0.8,1,0.8,2.7,1.1c0.1,0,0.1,0.3,0.2,0.4c0.1,0.1,0.1,0.1,0.2,0.2c1.3,0.6,2.3,1.5,3.1,2.6c1.2,1.6,1.6,3.4,1.7,5.3
		c0,0.5,0,1,0,1.4c0,1.6-0.2,3-0.7,4.5c-0.4,1.1-0.9,2.1-1.5,3c-0.5,0.7-0.9,1.4-1.3,2.1c-0.4,0.7-0.9,1.4-1.4,2.1
		c-0.1,0.2-0.3,0.5-0.4,0.7c-0.1,0.2-0.2,0.4-0.3,0.5c-0.8,0.7-1.6,1.3-2.4,2c-0.4,0.4-0.9,0.7-1.2,1.2c-1.6,2.3-4.1,3.4-6.5,4.6
		c-1.2,0.6-2.5,1-3,2.4c-0.1,0.1-0.2,0.3-0.3,0.4c-0.7,0.6-0.9,1.3-1,2.2c-0.3,2.5-0.8,4.9-1.4,7.4c-0.5,1.7-0.3,3.4,0.8,4.8
		c0.4,0.6,1,1,1.5,1.5c2.5-0.5,4.4-1.8,6.3-3.2c0.4-0.3,0.8-0.4,1.2-0.7c0.8-0.5,1.6-1.1,2.5-1.6c1.3-0.7,2.2-1.7,3-2.8
		c0.3-0.4,0.8-0.6,1.2-0.9c0.4-0.3,0.7-0.6,1-0.9c0.1-0.1,0.1-0.3,0.2-0.3c1.2-0.4,1.5-1.7,2.3-2.5c0.4-0.4,0.8-0.6,1.2-1
		c1.9-1.8,3.7-3.7,5.4-5.8c0.9-1.1,1.8-2.1,2.8-3.1c0.9-0.9,1.5-1.9,1.8-3.1c0.6-2.6,1.2-5.2,1.7-7.8c0.4-2.3,0.9-4.5,1.4-6.8
		c0.5-2.1,0.8-4.3,1.3-6.4c0.5-2.2,1-4.3,1.5-6.5c0.5-2.4,1.2-4.7,1.9-7c0.4-1.4,1-2.8,1.3-4.2c0.6-2.7,1.7-5.2,2.6-7.8
		c0.2-0.5,0.3-1.1,0.4-1.6c0-0.5,0.2-1,0.5-1.4c0.4-0.6,0.8-1.2,1.2-1.7c0.5-0.8,0.8-1.6,0.9-2.5c0.1-0.4,0.2-0.7,0.5-1
		c0.5-0.4,0.8-0.9,1-1.6c0.1-0.4,0.7-0.8,1.1-0.9c1.7-0.7,3.5-0.9,5.3-0.7c0.7,0.1,1.5,0.3,2.1,0.7c0.7,0.5,1.3,1.2,1.7,2
		c1.4,2.5,2.4,5.3,3.1,8.1c0.3,1.1,0.4,2.3,0.5,3.5c0.2,1.5,0.5,2.9,0.7,4.4c0.1,0.6,0,1.2,0,1.8c0.1,2.1,0.2,4.1,0.2,6.2
		c0,2.1-0.3,4.2-0.8,6.2c-0.5,2.5-1.3,4.9-2.3,7.3c-0.7,1.8-1.6,3.6-2.6,5.3c-0.3,0.6-0.7,1.2-1,1.7c-1.3,2-2.8,3.9-4.3,5.8
		c-2.7,3.2-5.3,6.5-7.9,9.8c-0.3,0.4-0.6,0.9-0.8,1.4c-0.5,1.4-1,2.9-1.4,4.3c-0.1,0.3-0.5,0.6-0.1,1c0,0-0.1,0.2-0.2,0.4
		c-0.1,0.1-0.2,0.2-0.2,0.2c0.2,1.1-0.8,2-0.7,3.1c0,0.2,0,0.3,0,0.5c-0.3,1.3-0.1,2.6-0.7,3.8c-0.2,0.4-0.2,1-0.3,1.5
		c-0.1,0-0.3,0-0.3,0c-0.5,0.7-0.5,1.9,0,2.6c0.2-0.8-0.2-1.7,0.3-2.4c0.1,0.2,0.2,0.3,0.2,0.5c0,0.9,0,1.9-0.2,2.8
		c-0.2,0.8,0,1.7-0.1,2.5c-0.1-0.3-0.3-0.6-0.5-1c0,0.4,0,0.7,0,0.9c-0.1,0.4-0.5,0.9-1,1.1c0-0.2,0-0.3,0-0.5c0-0.5,0.4-1,0.3-1.6
		c-0.1-0.6,0.3-1.2,0.5-1.9c-0.2,0-0.4-0.1-0.6-0.1c0-0.4,0.5-0.7,0.2-1.1c-0.2-0.3,0.2-0.9-0.5-1.1c0,0.8-0.3,1.5,0.3,2.2
		c-0.5,1.2-0.3,2.4-0.3,3.6c0,0.3,0,0.6,0,0.9c0,0.2,0,0.5,0,0.7c0.1,0.7,0.2,1.4,0.2,2.2c0.1,1.3,0.4,2.5,1.2,3.6
		c0.1,0.7,0.7,1,1.3,1.3c0.2,0.1,0.4,0.1,0.6,0c0.8-0.2,1.6-0.5,2.2-1c1.8-1.6,3.8-3,5.3-5c1.1-1.5,2.5-2.8,3.7-4.2
		c1.1-1.3,2.1-2.6,3.1-3.9c1.7-2.3,3.5-4.7,5.2-7c0.3-0.4,0.5-0.8,0.8-1.2c1.3-1.9,2.6-3.9,4-5.7c0.6-0.8,0.6-1.6,0.8-2.4
		c0.6-2.4,1.2-4.8,1.9-7.1c1.1-3.1,2.1-6.3,3.1-9.5c0.9-2.8,1.7-5.5,2.5-8.3c0.2-0.7,0.3-1.5,0.4-2.2c0.1-0.6,0.3-1.2,0.8-1.7
		c0.4-0.4,0.7-0.8,1-1.2c0.5-0.7,1.1-1.2,2-1.3c0.2,0,0.5-0.1,0.7-0.1c0.8,0,1.6,0,2.4,0.4c1,0.5,1.9,1.1,2.7,1.8
		c1.3,1.2,2.7,2.4,3.2,4.3c0.3,1.2,0.3,2.4-0.2,3.6c-0.5,1-0.9,2.1-1.1,3.2c-0.2,0.9-0.7,1.8-1,2.7c-0.3,0.9-0.8,1.7-1,2.6
		c-0.4,1.3-0.8,2.7-1.2,4c-0.5,1.8-1,3.5-1.5,5.3c-0.6,1.9-1.2,3.7-1.9,5.6c-0.7,1.8-1,3.8-1.5,5.7c-0.2,0.9-0.4,1.8-0.6,2.6
		c-0.1,0.5-0.1,0.9-0.2,1.4c0.7,0.3,1.2,0,1.6-0.3c1.1-1,2.1-2.1,3.1-3.1c0.5-0.5,1-1.1,1.4-1.6c0.7-0.8,1.3-1.6,1.9-2.4
		c0.7-0.9,1.4-1.7,2.1-2.6c1.3-1.7,2.5-3.5,3.9-5.2c0.5-0.7,1-1.4,1.6-2c0.5-0.5,0.8-1.3,1.2-2c0.5-1.1,1-2.2,1.4-3.2
		c0.2-0.4,0.4-0.7,0.6-1c0.7-1.1,1.1-2.2,1.4-3.5c0.3-1.5,0.7-3.1,1-4.6c0.2-1,0.4-2,0.7-3c0.1-0.6,0.5-1.2,0.6-1.9
		c0-0.3,0.5-0.7,0.8-0.8c0.7-0.1,1.1-0.7,1.4-1.2c0.4-0.8,1.2-0.7,1.7-0.7c1.1,0.1,2.1,0.5,3,1.3c0.2,0.2,0.5,0.4,0.8,0.5
		c0.9,0.2,1.6,0.8,2.3,1.4c0.4,0.3,0.7,0.7,0.8,1.3c0.1,0.7,0.3,1.4,0.3,2.1c0.1,0.6,0,1.2-0.3,1.7c-0.7,1.3-0.8,2.8-1.1,4.3
		c-0.1,0.6-0.3,1.2-0.5,1.8c-0.5,1.9-1,3.8-1.4,5.7c-0.6,2.5-1.2,4.9-1.6,7.4c-0.3,1.4-0.3,2.8-0.3,4.3c0,1.2,0,2.4-0.4,3.6
		c-0.3,1-0.4,2.2-0.5,3.3c-0.1,0.9-0.2,1.7-0.3,2.6c0,0.2,0.1,0.4,0,0.5c-0.7,1-0.6,2.2-0.7,3.3c-0.2,1.4-0.4,2.8-0.6,4.2
		c0,0.2-0.1,0.3-0.1,0.5c0,1.7,0,3.3-0.2,5c-0.2,1.4-0.3,2.9-0.5,4.3c-0.2,1.3-0.3,2.7-0.5,4c0,0.3-0.1,0.5-0.2,0.9
		c0.7,0.5,1.6,0.5,2.4,0.2c0.6-0.2,1.2-0.4,1.8-0.6c0.3-0.1,0.6-0.3,0.8-0.2c0.8,0.3,1.5,0,2.2-0.2c1.2-0.4,2.5-0.7,3.8-1
		c0.3,0.2,0.6,0.5,1,0.8c1.2-1.2,2.8-1.2,4.3-1.5c1.5-0.3,3.1-0.5,4.7-0.7c0.2,0,0.4,0,0.6,0c0.8,0,1.4,0,2.1-0.6
		c0.5-0.5,1.3-0.7,2.2-0.5c0.3,0.8-0.2,1.8,0.5,2.6c0.4-0.3,0.8-0.7,1.2-1.1c0.4,0.1,0.8,0.1,1.3,0.2c0.7,0.1,1.4,0.2,2-0.4
		c0.8-0.7,1.7-0.8,2.8-0.8c2,0.1,3.9,0.1,5.9,0c1-0.1,2.1-0.4,3.1-0.7c0.7-0.2,1.3-0.4,2-0.2c0.9,0.2,1.9,0.1,2.8-0.1
		c1.9-0.5,3.8-0.7,5.6-1.2c0.6-0.2,1.2,0,1.7,0.3c0.6,0.3,1,0.2,1.4-0.3c0.3-0.4,0.7-0.6,1.3-0.5c0.5,0.1,0.9-0.3,1.5-0.1
		c0.4,0.2,0.8,0.2,1.1,0.5c0.3,0.4,0.7,0.3,1.2,0.1c1.6-0.9,3.3-1.3,5.1-1.2c0.4,0,0.8,0.3,1.3,0.4c0.5-0.7,1.3-0.7,2.1-0.7
		c1,0,2.1,0,3.1,0c1,0,2-0.1,3.1-0.2c0.2,0,0.3-0.1,0.4-0.2c0.6-0.3,1.1-0.4,1.8-0.1c0.9,0.3,1.8,0,2.7-0.2c0.6-0.1,1.2-0.2,1.8-0.2
		c0.8-0.1,1.7,0.2,2.5-0.2c1.4,0.6,2.9-0.1,4.3,0.4c0.1,0,0.3,0.1,0.4,0c1.1-0.5,2.2,0.1,3.3,0c1.1-0.1,2.2-0.1,3.2,0
		c1.3,0.1,2.5,0.3,3.7,0.4c0.8,0,1.6-0.1,2.3-0.3c0.5-0.1,0.8-0.1,1.1,0.1c0.5,0.3,1.1,0.6,1.7,0.5c0.2,0,0.4,0,0.6-0.1
		c1.2-0.7,2.5-0.4,3.8-0.1c0.4,0.1,0.7,0.3,1-0.2c0-0.1,0.4-0.1,0.5-0.1c0.6,0,1.2,0,1.8,0c1.2-0.1,2.4,0.1,3.5,0.5
		c0.5,0.1,1,0.2,1.5,0.3c0.1-0.1,0.2-0.2,0.2-0.3c0.1-0.1,0.1-0.2,0.2-0.3c0.6-0.6,0.9-0.6,1.5-0.1c0.6,0.5,0.9,0.6,1.4,0.1
		c0.5-0.6,1.1-0.7,1.8-0.7c1.8,0,3.5,0.5,5.2,0.7c0.1-0.1,0.2-0.1,0.2-0.2c0.3-0.5,0.8-0.3,1.1-0.2c0.8,0.3,1.5,0.1,2.3-0.1
		c0.9-0.3,1-0.3,1.7,0.6c0.7-0.3,1.5-0.7,2.4-0.4c0,0.2,0.1,0.5,0.1,0.8c0.7,0,1.4,0,2.2,0c0.1-0.4,0.4-0.9-0.3-1.3
		c-0.2-0.1-0.1-0.5,0.2-0.7c0.4-0.2,0.8-0.3,1.2,0.1c0.4,0.4,0.9,0.6,1.5,0.5c0.8-0.1,1.6-0.2,2.4-0.2c0.4,0,0.9,0,1.3,0
		c0.2,0.4,0.4,0.8,0.5,1.1c1.3-0.3,2.6-0.7,3.9-1c1.3-0.3,2.7-0.6,3.9,0.3c0.3,0.2,0.7,0.3,1.1,0.4c0.3-0.2,0.5-0.4,0.8-0.5
		c0.3,0,0.7,0.1,1,0.3c0.5,0.3,1,0.4,1.5,0c0.3-0.2,0.6-0.4,1-0.7c1,0.2,2.1,0.5,3.2,0.7c0.6,0.1,1.2-0.1,1.7-0.3
		c0.6-0.2,1.2-0.3,1.8,0c0.2,0.1,0.4,0,0.5,0c0.2,0,0.5-0.1,0.7-0.1c1,0.1,1.9,0.3,2.9,0.4c1.1,0.1,2.3,0.2,3.4,0.3
		c0.3,0,0.6,0,0.8-0.1c1.4-0.9,3-0.8,4.5-0.3c1.2,0.4,2.3,0.4,3.5,0.4c0.6,0,1.3,0,1.9,0c0.5,0.4,1,0.8,1.5,1.2
		c0.1-0.2,0.2-0.4,0.3-0.6c0.3-0.9,0.6-1.1,1.5-0.9c1.6,0.4,3.3,0.5,4.6,1.5c0.2,0.1,0.5,0.1,0.7,0.1c0.8-0.1,1.6-0.1,2.3-0.3
		c0.6-0.2,1.2-0.2,1.9-0.2c0.4,0,0.8,0.1,1.2-0.1c0.5-0.1,0.9-0.3,1.3,0c0.1,0.1,0.5,0,0.7-0.1c0.9-0.2,1.8-0.3,2.7,0
		c0.1,0,0.3,0.1,0.5,0c0.9-0.5,1.9-0.1,2.8-0.2c0.1,0,0.3,0,0.5,0.1c0.8,0.5,1.8,0.4,2.8,0.4c0.2,0.5,0.6,0.7,1.3,0.7
		c0.7,0,1.3,0.1,1.9,0c0.6-0.1,1.2,0.1,1.8,0.4c1,0.5,2.2,0.7,3.3,1c0.4,0.1,0.8,0.2,1.2,0.3c0,0.3,0,0.6,0,0.8
		c-0.1,0-0.2,0.1-0.3,0.1c-0.3,0-0.5-0.1-0.8-0.1c-0.8-0.2-1.7-0.3-2.5,0c-0.6,0.2-0.9-0.1-1.2-0.4c0-0.4,0-0.7-0.4-0.9
		c-0.1-0.1-0.4,0-0.5,0.1c-0.1,0.1,0,0.4,0.1,0.5c0.2,0.2,0.4,0.2,0.6,0.3c0,0.2,0,0.6-0.4,0.5c-0.5-0.1-0.9-0.2-1.4-0.4
		c-0.5-0.2-1-0.6-1.7-0.2c-0.2,0.1-0.5,0.1-0.7,0c-1.3-0.5-2.7-0.1-4,0c-0.7,0.6-1.5,0.2-2.2,0.2c-1,0.1-1.9-0.2-2.8-0.4
		c-0.3-0.1-0.5-0.1-0.8-0.1c-1.6,0-3.1,0.2-4.7,0.6c-0.9,0.2-1.8,0.4-2.8,0.4c-2-0.1-4.1,0.1-6.1-0.1c-2.6-0.3-5.3-0.1-7.9-0.2
		c-0.6,0-1.1,0.1-1.7,0.1c-0.6,0-1.2,0-1.8-0.1c-4.1-0.4-8.2-0.2-12.3-0.2c-1.3-0.5-2.5-0.1-3.8,0.2c-0.5,0.1-1.1,0.1-1.5,0
		c-0.9-0.3-1.8-0.3-2.7,0c-0.3,0.1-0.6,0.1-0.8,0c-1.6-0.3-3.3-0.4-4.9,0c-0.1,0-0.2,0-0.2,0c-1.3-0.3-2.6,0.2-3.9-0.1
		c-1.1-0.2-2.2-0.2-3.3-0.2c-1,0-2.1,0.1-3.1,0.3c-1.5,0.2-3.3,0.3-4.7,0c-0.3-0.1-0.6,0-1,0c-4.4,0-8.7,0-13.1,0c-1,0-2,0.1-3-0.2
		c-0.6-0.2-1.2,0.1-1.8,0.5c-0.4-0.3-0.7-0.6-1-0.9c-0.1,0-0.2,0-0.3,0c-1,0.7-2.1,1-3.2,0.4c-0.6-0.3-1.2-0.2-1.6,0.1
		c-1.3,0.9-2.6,0.6-4,0.4c-0.3-0.1-0.6-0.1-0.9-0.2c-1.2-0.6-2.2-0.5-3.3,0.3c-0.7,0.5-1.6,0.3-2.4,0.1c-1-0.2-2-0.2-3.1,0
		c-0.8,0.2-1.6,0.2-2.5,0.3c-0.9,0.1-1.8,0.2-2.7,0.2c-0.6,0-1.2,0.2-1.7-0.3c-0.1-0.1-0.4-0.1-0.6-0.1c-0.5,0-1.1,0.1-1.6,0.2
		c-1.7,0.2-3.4,0.3-5.1,0.5c-1.7,0.1-3.4,0.2-5.1,0.3c-0.4,0-0.8-0.2-1.3-0.2c-0.5,0-1.1,0.1-1.6,0.2c-0.8,0-1.6,0.1-2.4,0
		c-1.1-0.1-2.1,0.2-3.2,0.3c-1.2,0.2-2.4,0.4-3.6,0.6c-0.5,0.1-1,0.3-1.5,0.2c-1.6-0.3-3,0.2-4.5,0.5c-1.2,0.2-2.3,0.4-3.5,0.5
		c-0.6,0.1-1.2,0.5-1.8-0.2c-0.1-0.1-0.5,0.1-0.8,0.1c-1.3,0.1-2.7,0.2-4,0.3c-1.1,0.1-2.1,0.3-3.1,0.4c-0.2,0-0.3,0-0.5,0
		c-1.6,0.1-3.2,0.1-4.7,0.3c-1.3,0.2-2.7,0.1-4,0.2c-2.3,0.2-4.7,0.4-7,0.5c-1.8,0.1-3.6,0.2-5.4,0.5c-1.9,0.2-3.9,0.7-5.8,0.9
		c-1,0.1-2,0.1-3,0c-0.6,0-1.3,0.1-1.9,0.3c-2.4,0.8-4.9,1.4-7.4,1.9c-1.2,0.2-2.4,0.4-3.6,0.8c-1.3,0.4-2.2,1.3-2.4,2.8
		c0,0.3-0.1,0.6-0.2,0.8c-0.8,1.3-1.1,2.8-1.6,4.3c-0.5,1.6-1,3.2-1.7,4.8c-0.9,2.1-1.8,4.3-2.7,6.4c-0.8,1.8-1.6,3.6-2.5,5.3
		c-1,1.7-2.1,3.4-3.3,5c-1.5,1.9-2.9,3.8-4.4,5.6c-1.7,2-3.5,3.9-5.3,5.6c-1.7,1.6-3.5,3.2-5.5,4.4c-3.3,2-6.7,3.9-10.5,5
		c-2.2,0.6-4.4,1.2-6.6,1.5c-1.9,0.2-3.8,0.2-5.7,0.1c-1.1,0-2.2-0.3-3.4-0.6c-1.7-0.4-3.4-0.8-5.1-1.4c-1.4-0.5-2.8-1.1-4.1-1.8
		c-1.5-0.8-2.8-1.9-4.2-2.9c-2.9-2.2-4.6-5-5.2-8.5c-0.5-3,0.2-5.7,1.8-8.2c1.3-2.1,3.1-3.6,4.8-5.2c0.6-0.5,1.2-1,1.7-1.6
		c3-2.8,6.5-4.9,10-6.9c1-0.6,2.1-1,3.2-1.6c1.1-0.6,2.1-1.2,3.2-1.8c1.4-0.8,2.8-1.3,4.3-1.9c2.4-1,4.8-2,7.2-2.9
		c1.7-0.7,3.5-1.3,5.3-2c0.8-0.3,1.6-0.7,2.4-1c1.1-0.4,2.2-0.7,3.3-1.1c0.6-0.2,1.3-0.4,1.9-0.6c0.7-0.2,1.4-0.5,2.1-0.6
		c0.9-0.1,1.6-0.5,2.4-0.8c1-0.5,2-0.8,3.1-1.1c1.2-0.4,2.4-0.8,3.6-1.2c0.1-0.1,0.2-0.2,0.2-0.3c0.1-0.2,0.2-0.4,0.2-0.5
		c-0.2-1.3,0.3-2.5,0.3-3.8c0-0.3,0.1-0.5,0.1-0.8c0.4-1.6,0.8-3.2,0.8-4.9c0-1.2,0.1-2.4,0.6-3.6c0.4-1,0.4-2.1,0.6-3.1
		c0.3-2,0.5-4,0.7-6c0.2-1.9,0.4-3.7,0.7-5.6c0.2-1.3,0.5-2.5,0.7-3.8c0.2-1.4,0.4-2.8,0.5-4.2c0.1-0.9,0.5-1.7,0.4-2.9
		c-0.5,0.6-0.9,0.9-1.1,1.3c-0.3,0.7-0.5,1.1-1,1.5c-0.2,0.2-0.5,0.5-0.9,0.9c0.6-0.2,1-0.3,1.4-0.3c-0.3,0.9-0.7,1.6-1.7,1.9
		c0-0.2,0-0.5,0-0.7c0.1-0.1,0.1-0.2,0.2-0.3c-0.1,0-0.1,0-0.2-0.1c0,0.1,0,0.3,0,0.4c-0.6,0.2-0.8,0.8-1,1.4c0.3,0,0.4,0.1,0.6,0.1
		c-1,1.1-1.9,2.1-2.9,3.2c-0.6,0.7-1.2,1.4-1.8,2.1c-0.1,0.2-0.2,0.4-0.2,0.7c-0.1,0.8-0.1,0.8-1,0.8c-0.1,0-0.2,0-0.3,0
		c-0.4,0.7-0.7,1.4-1.1,2.1c-0.1,0.2-0.3,0.3-0.5,0.4c-1.2,0.6-2.3,1.3-3.5,1.7c-1.2,0.4-2.4,0.9-3.7,0.6c-0.1,0-0.3,0.1-0.4,0.1
		c-0.4,0-0.9,0.1-1.3,0c-1.3-0.4-2.6-0.7-3.7-1.7c-0.2-0.2-0.4-0.3-0.6-0.3c-1.4-0.3-2.4-1.1-2.9-2.4c-0.2-0.5-0.4-0.9-0.7-1.5
		c-2.6,3.8-5.2,7.5-7.8,11.2c-0.5,0.7-1,1.4-1.4,2c-0.1,0.1-0.1,0.2-0.2,0.3l0,0c-0.1,0.1-0.1,0.1-0.2,0.2c0.1,0,0.1,0,0.2,0
		c0.5,0.3,0,0.6-0.1,0.7c-0.6,0.8-1.2,1.6-1.9,2.4c-1.2,1.5-2.5,2.9-4,4.1c-0.2,0.2-0.5,0.4-0.4,0.8c-0.4,0-0.6,0.1-0.5,0.5
		c-0.5,0.8-1.3,1.2-2.2,1.2c-0.4,0-0.6,0.1-0.7,0.5c-0.2,0.9-0.8,1.4-1.7,1.6c-1.2,0.2-2.4,0.4-3.6,0.6c-1.1,0.2-2.2,0.3-3.3,0.5
		c-0.5,0.1-0.9-0.1-1.2-0.3c-1.3-0.8-2.7-1.6-4-2.6c-0.9-0.7-1.8-1.5-2.2-2.7c-0.5-1.3-0.9-2.6-1.3-3.9c0-0.1-0.1-0.2-0.1-0.3
		c-0.2-2.4-0.4-4.8-0.2-7.1c0.1-1.5,0.1-3.1,0.2-4.6c0.1-1.3,0.3-2.7,0.4-4c0.1-0.7,0.2-1.5,0.2-2.2c0.1-1.7,0.2-3.4,0.3-5.1
		c0-0.1,0-0.2,0-0.2c0.1,0,0.1,0,0.2-0.1c0,0-0.1-0.1-0.1-0.1c0,0.1-0.1,0.1-0.1,0.2c-0.1,0.1-0.2,0.2-0.2,0.2
		c-1.2,1.3-2.3,2.6-3.5,3.8c-1.3,1.4-2.7,2.8-4,4.1c-2,1.9-4.1,3.9-6.2,5.7c-0.9,0.8-2,1.5-3,2.3c-0.8,0.7-1.5,1.3-2.5,1.7
		c-1,0.5-2,0.8-3.1,1c-0.3,0.1-0.7,0-1.1,0c-0.2,0-0.5-0.1-0.7-0.1c-0.9,0-1.8-0.1-2.7-0.4c-0.5-0.2-1.2-0.1-1.8-0.1
		c-0.6,0-1.2,0-1.7-0.4c-0.7-0.5-1.6-0.4-2.4-0.5c-0.9-0.1-1.4-0.4-1.6-1.3c0-0.1-0.1-0.1-0.1-0.2c0-0.2,0-0.5-0.1-0.7
		c-0.6-1.2-1.2-2.3-1.7-3.5c-0.3-0.9-0.5-1.9-0.6-2.8c-0.1-1,0.1-2,0.2-3.1c0-0.4,0.1-0.8,0.2-1.1c0.1-0.8,0.2-1.6,0.3-2.5
		c-0.3,0.4-0.5,0.6-0.7,0.9c-0.2,0.3-0.3,0.7-0.5,1c-0.1,0-0.1,0-0.2,0.1c0,0,0.1,0.1,0.1,0.1c0-0.1,0.1-0.1,0.1-0.2
		c0.1,0.1,0.2,0.3,0.2,0.3c-0.2,0.3-0.4,0.6-0.5,0.6c0,0.7-0.1,1.1-0.1,1.5c0,0.3-0.1,0.7-0.1,1c0,0.3,0.1,0.7,0.2,1
		c0.2,1,0.3,2,0.5,3c0.1,0.4,0.1,0.8,0.2,1.1c-0.1-0.1-0.4-0.2-0.4-0.4c-0.8-1.8-1.4-3.7-1.3-5.7c0-0.1,0-0.2,0-0.3
		c-0.6,0.8-1.2,1.6-1.9,2.5c-0.1,0.1-0.1,0.2-0.2,0.3c0,0.2,0,0.3,0,0.5c-0.4,0-0.7,0-1.1,0.4c-1,0.9-2.4,1.4-3.3,2.5
		c-0.1,0.1-0.2,0-0.3,0.1c-1,0.3-2.1,0.5-3.1,0.8c-0.2,0.1-0.5,0.1-0.7,0c-0.8-0.4-1.7-0.8-2.5-1.3c-0.3-0.2-0.7-0.4-1-0.6
		c-2.1-1.1-3.6-2.7-4.4-4.8c-0.5-1.2-1-2.4-1.3-3.6c-0.2-1.1-0.6-2.1-0.6-3.2c0-1.1-0.3-2.2-0.4-3.4c0-0.1,0-0.2,0-0.4
		c-0.1-1.9-0.2-3.8-0.3-5.7c0-0.1,0-0.3,0-0.6C226.1,181.1,226,181.2,225.9,181.4z M336.5,259.9c0.1-0.1,0.2-0.2,0.2-0.2
		c0.1-0.1,0.2-0.2,0.2-0.2c0.2,0,0.4,0,0.7-0.1c0-0.3,0-0.4-0.1-0.6c-0.5,0.1-0.7,0.3-0.7,0.7c-0.1,0.1-0.2,0.2-0.2,0.2
		C336.7,259.7,336.6,259.8,336.5,259.9c-0.1,0-0.1,0.1-0.2,0.1c0,0,0.1,0.1,0.1,0.1C336.4,260,336.5,259.9,336.5,259.9z
		 M337.9,259.6c0.3,0,0.6-0.1,0.9-0.1c0-0.2,0-0.4-0.1-0.6C338.4,259,338.1,259.3,337.9,259.6c-0.5,0-0.7,0.2-0.7,0.7
		C337.8,260.3,338,260.1,337.9,259.6z M336.2,261.8L336.2,261.8c0,0.5,0.2,0.7,0.6,0.4c0.3-0.2,0.4-0.5,0.6-0.8
		c-0.3-0.1-0.5-0.1-0.7-0.1c0.1-0.2,0.3-0.4,0.5-0.8c-0.6,0.3-1,0.5-1.4,0.7c-0.1,0.1-0.1,0.3-0.1,0.5
		C335.8,261.7,336.1,261.7,336.2,261.8z M263.1,182.3c0.9-0.9,1.8-1.9,2.7-2.8c0.4-0.4,0.7-0.8,1.1-1c2.4-1.3,3.9-3.3,5-5.7
		c0.3-0.5,0.5-1.2,0.1-1.6c0.3-0.5,0.6-0.9,0.6-1.3c0.4-2.1,0.9-4.3,0.9-6.5c-0.1,0-0.2,0-0.2,0c-1,0.4-1.5,1.2-2,2
		c-0.8,1.2-1.5,2.4-2.5,3.4c-0.7,0.7-1.1,1.5-1.6,2.3c-0.5,1-0.9,2.1-1.3,3.1c-1,2.4-1.9,4.9-2.8,7.3
		C263,181.8,263.1,182.1,263.1,182.3c-0.1,0-0.1,0-0.2,0.1c0,0,0.1,0.1,0.1,0.1C263,182.5,263,182.4,263.1,182.3z M342.4,233.6
		c-0.8,0.3-1.4,0.4-2,0.6c-3.7,1.3-7.5,2.6-11.1,4c-3.1,1.2-6.2,2.5-9.4,3.8c-2.8,1.1-5.5,2.3-8.1,3.8c-2.5,1.5-5.1,2.9-7.6,4.6
		c-2.1,1.4-4.2,2.8-6.1,4.5c-1.5,1.2-3,2.5-4.2,4.1c-1.2,1.6-2.4,3.1-2.9,5.1c-0.3,1.1-0.6,2.2-0.3,3.3c0.8,2.7,2.3,5,4.4,6.9
		c0.5,0.4,1.1,0.7,1.7,1c2.9,0.9,5.9,1,8.9,0.4c2.8-0.5,5.4-1.7,7.9-3c3.7-2,7-4.7,10.2-7.5c2.8-2.6,5.4-5.5,7.9-8.3
		c0.4-0.5,0.8-1,1.2-1.6c1-1.7,2.1-3.3,3.1-5c0.9-1.6,1.7-3.3,2.4-5c0.7-1.6,1.2-3.3,1.8-4.9c0.2-0.6,0.3-1.1,0.4-1.7
		c0-0.4,0.1-0.7,0.4-1c0.7-0.6,0.9-1.3,1-2.1C342.1,234.7,342.2,234.2,342.4,233.6z M302.4,176.2c0.1,0,0.1,0,0.2,0.1
		c1.9-2.8,3.8-5.7,5.7-8.5c1.2-1.7,2.1-3.5,2.8-5.5c1.3-4,2.5-8,3.8-12c1-3.2,1.3-6.5,1.3-9.8c0-0.9-0.2-1.7-0.2-2.6
		c0-0.9-0.2-1.8-0.5-2.7c-0.2-0.5-0.5-1-0.8-1.4c-0.6-0.7-1.2-0.7-1.8,0c-0.3,0.5-0.6,1-0.8,1.6c-0.4,1.1-0.6,2.3-1,3.4
		c-0.3,0.9-0.6,1.8-0.5,2.8c0,0.1,0,0.2,0,0.2c-0.4,1.6-0.9,3.2-1.3,4.7c-0.5,2.1-0.9,4.1-1.3,6.2c-0.4,1.7-0.7,3.4-1.1,5
		c-0.4,1.7-0.8,3.3-1.5,4.9c-0.6,1.4-0.7,3-1,4.6c-0.5,2.4-1.1,4.7-1.6,7.1C302.6,175,302.5,175.6,302.4,176.2z M295.7,195.9
		c-0.8,1.5-0.7,2.8-0.7,4.4c0.4-0.4,0.6-0.6,0.7-0.6c-0.1-0.6-0.3-1-0.2-1.2C295.9,197.6,295.6,196.9,295.7,195.9z M249.7,193
		c0.3-0.6,0.6-1.2,0.9-1.8C249.6,191.7,249.6,191.7,249.7,193z M386.6,220.8c-0.5-0.5-0.9-0.4-1.7,0
		C385.7,221,386.1,221.6,386.6,220.8z M296.2,204.8c0.3-0.5,0.2-0.8,0.1-1.4C296.2,203.9,295.7,204.2,296.2,204.8z"/>
	<path class="st0" d="M98.4,210.7c-0.5,0-1,0-1.6,0c0.2-0.4,0.3-0.7,0.5-1.1c-0.9-0.3-1.6-0.5-2.5-0.8c-0.3-0.5-0.7-1.2-1.3-1.8
		c-1.1-1.2-1.6-2.6-1.8-4.1c-0.1-0.7-0.2-1.5-0.3-2.2c0-0.3-0.1-0.7-0.2-1c0-0.3-0.1-0.6,0-0.8c0.3-2.5,0.5-5.1,1.3-7.5
		c0.8-2.3,1.6-4.6,2.3-6.9c0.5-1.6,0.9-3.1,1.4-4.7c0.5-1.7,1.1-3.4,1.5-5.2c0.3-1.1,0.5-2.3,0.6-3.5c0.1-0.5-0.1-1-0.2-1.5
		c-0.3-0.9-1.1-1.3-2-0.8c-0.6,0.3-1.1,0.8-1.6,1.2c-0.6,0.5-1,1.4-2,1.3c-0.2,0-0.4,0.3-0.5,0.5c-2,2.1-4.1,4.3-6.1,6.4
		c-0.4,0.4-0.6,0.9-1,1.2c-0.7,0.4-1.2,1-1.7,1.7c0,0.1-0.1,0.1-0.2,0.1c0-0.1-0.1-0.1-0.1-0.2c0,0.1,0,0.1,0,0.2
		c-0.1,1.5-0.5,2.9-0.7,4.3c-0.5,3-1.4,5.9-2.2,8.8c-0.3,1.2-0.9,2.3-1.3,3.5c-0.3,0.8-1.1,1.3-1.3,2.1c0,0.1-0.1,0.2-0.2,0.2
		c-0.9,0.2-0.8,0.8-0.8,1.5c-0.1,0-0.2,0-0.2,0.1c-0.7-0.3-0.8-0.3-1,0.3c0,0.2,0,0.4-0.1,0.6c-0.2,0.3-0.4,0.3-0.7,0
		c-0.2,0.3-0.4,0.6-0.7,1.1c-0.4-0.5-0.9-0.2-1.3,0c-0.6,0.3-1.2,0.3-1.8-0.1c-0.6-0.4-1-0.2-1.5,0.2c-0.7,0.7-1.6,0.7-2.5,0.7
		c0-1.3,0.1-2.6,0-3.8c-0.1-1.2,0.6-2.3,0.2-3.4c0.2-0.3,0.5-0.6,0.5-0.9c0.5-2.2,0.9-4.4,1.4-6.5c0-0.1,0.1-0.3,0.1-0.3
		c-0.6-1.1,0.1-2.1,0.3-3.1c0.5-1.8,0.8-3.7,1.1-5.5c0.3-2,0.8-3.9,1.1-5.9c0.3-1.8,0.8-3.6,1.2-5.4c0.1-0.3,0.1-0.6,0.1-1
		c0.4-0.7,0.5-1.4,0.4-2.2c0.5-0.9,0.6-1.8,0.5-2.7c-0.1-0.6,0.1-1.1,0.4-1.6c0.6-1,1.1-2.1,1.6-3.1c0.8-1.5,2.2-2.1,3.6-2.6
		c0.2-0.1,0.5,0,0.7-0.2c1.1-0.8,2.2-0.5,3.4-0.4c1.6,0.1,2.5,1.1,3.6,1.9c0.5,0.4,0.8,1,0.7,1.7c-0.2,1.2-0.3,2.4-0.5,3.6
		c-0.2,1.2-0.3,2.5-0.5,3.7c-0.2,1.3-0.5,2.6-0.7,3.9c-0.1,0.3,0,0.6-0.1,1.2c0.7-0.9,1.2-1.7,1.9-2.3c0.7-0.7,1.5-1.3,2.2-1.9
		c0.6-0.6,1.3-1.2,1.9-1.8c0.2-0.2,0.2-0.5,0.4-0.5c1.2-0.5,2.1-1.3,3.1-2c1.3-0.9,2.7-1.8,4-2.7c1-0.7,2.1-1.3,3.2-1.8
		c1.2-0.5,2.4-0.6,3.7-0.7c0.5-0.1,0.9-0.1,1.5-0.2c0.7,0.6,1.9,0.4,2.8,1.1c0.1,0.2,0.2,0.5,0.4,0.7c0.5,0.5,0.9,1,1,1.7
		c0,0.2,0.2,0.5,0.4,0.6c0.7,0.3,0.7,0.9,0.7,1.5c0,1.4,0.1,2.8,0,4.2c-0.2,2.4-0.6,4.7-1.5,6.9c-0.8,2-1.5,4.1-2.2,6.2
		c-0.7,2.1-1.7,4.1-2.4,6.2c-0.6,1.7-1.4,3.3-1.8,5.1c-0.3,1.2-0.7,2.4-1,3.6c-0.3,1.3-0.4,3.6-0.2,4.8c0.1,0.5,1,1.3,1.5,1.3
		c1.2,0.2,2.2-0.3,3.3-0.9c1.1-0.7,2.1-1.4,3.4-1.9c0.9-0.4,1.7-1.1,2.5-1.8c1.8-1.6,3.6-3.2,5.5-4.8c1.5-1.3,2.9-2.7,4.1-4.3
		c0.1-0.1,0.1-0.2,0.2-0.3c1-0.9,1.5-2,1.7-3.3c0.3-1.7,0.6-3.5,1-5.2c0.4-1.3,0.3-2.6,0.8-3.9c0.2-0.6,0.2-1.2,0.2-1.9
		c0.1-1.5,0.8-2.9,1.4-4.2c0.7-1.6,1.4-3.2,1.8-4.8c0.3-0.9,0.8-1.8,1.2-2.7c0.1-0.2,0.2-0.5,0.3-0.8c0.2-0.1,0.5-0.3,0.9-0.5
		c0.2-0.1,0.5-0.2,0.7-0.1c0.7,0.4,1.4,0.2,2.1,0.2c0.9,0,1.8,0.1,2.6,0.5c0.6,0.3,1.4,0.3,2,0.5c0.2,0,0.4,0.1,0.5,0.2
		c0.4,0.3,0.8,0.7,1.3,1c1.3,0.9,1.4,2.2,1.2,3.6c-0.5,2.5-1,5.1-1.6,7.6c-0.4,1.7-0.7,3.4-1.3,5c-0.4,1.1-0.5,2.3-0.8,3.4
		c-0.2,0.7-0.5,1.3-0.7,2c-0.8,2.6-1.6,5.1-2.3,7.7c-0.7,2.6-1.1,5.2-0.8,7.9c0.1,0.9,0.1,2,0.7,2.8c0.7,0.9,1.8,1.3,2.8,1
		c0.2-0.1,0.5-0.3,0.4-0.5c0-0.6,0.4-0.9,0.8-1.3c1.7-1.8,3.5-3.6,5.2-5.5c1.1-1.3,2.3-2.6,3.1-4.2c0.6-1.1,1.4-2,2.3-2.9
		c0.4-0.3,0.6-0.8,0.8-1.3c0.7-2.3,1.5-4.7,2.6-6.9c0.8-1.7,1.5-3.4,2.4-5c1.9-3.6,4-7.1,6.3-10.4c1-1.5,2.3-2.8,3.5-4.1
		c0.6-0.7,1.3-1.4,1.9-2.1c1.1-1.3,2.5-2.2,3.9-3.1c1.6-1,3.1-2.1,4.7-3c1.2-0.7,2.5-1.2,3.7-1.7c0.7-0.3,1.5-0.1,2.2,0.4
		c0.4,0.3,0.8,0.3,1.2,0.3c0.5,0,0.9,0.1,1.4,0.1c0.9,0.1,1.4,0.9,1.9,1.5c0.9,0.9,1.7,1.9,2.5,2.9c0.8,1,1.6,2,1.9,3.3
		c0.1,0.3,0.2,0.7,0.2,1c0,0.1-0.1,0.2-0.1,0.2c-0.3,0-0.5,0-0.5,0.4c0,0.6,0,1.3,0,1.9c-0.7,0.2-1.4,0.2-1.9-0.4
		c-0.1-0.1-0.5-0.1-0.6-0.2c-0.6-0.4-1.2-0.8-1.5-1.5c-0.1-0.3-0.5-0.5-0.8-0.8c-0.2,0.2-0.3,0.3-0.5,0.4c0.5,0.6,1.2,1,1.2,1.8
		c-0.1,0-0.2,0-0.3,0c-0.2,0-0.4,0-0.6-0.1c-0.1-0.3-0.2-0.6-0.3-0.7c-0.9-1-1.8-1.9-2.8-2.8c-0.3-0.3-0.6-0.3-0.8-0.1
		c-0.9,0.8-1.9,1.7-2.8,2.5c-0.5,0.4-0.8,1-1.2,1.4c-1.8,1.7-4.8,5.2-6.3,7.5c-1,1.5-2.1,2.9-3.1,4.3c-1.3,1.9-2.3,4-3.2,6.2
		c-0.3,0.7-0.8,1.4-1.1,2.1c-1.3,2.3-2.1,4.8-2.9,7.3c-0.5,1.6-1,3.2-1.5,4.8c-0.5,1.7-0.8,3.4-0.7,5.3c1.2-0.9,2.3-1.7,3.3-2.6
		c0.6-0.5,1.1-1.1,1.6-1.6c2.1-1.9,3.7-4.2,5.3-6.5c0.5-0.7,1-1.4,1.5-2c1.3-1.4,2.4-2.9,3.4-4.5c0.9-1.6,2.1-2.9,3.1-4.4
		c1-1.5,1.9-3.1,2.8-4.7c0.4-0.8,0.5-1.7,0.7-2.6c0.2-0.9,0.8-1.7,1.7-1.9c0.1,0,0.2,0.1,0.4,0.2c-0.1-0.3-0.2-0.5-0.2-0.8
		c0-0.3,0.2-0.5,0.3-0.8c0.8,0,1.6-1,2.6-0.4c0.9-0.3,1.8-0.2,2.8,0.2c0.1,0.2,0.3,0.5,0.4,0.8c0.3,0.7,0.7,0.9,1.4,1.5
		c0.9,0.7,1.8,1.5,1.7,2.8c-0.1,1.3-0.3,2.6-0.7,3.9c-0.4,1.2-0.8,2.5-1,3.7c-0.3,1.8-0.9,3.5-1.5,5.2c-0.7,1.8-1.1,3.7-1.6,5.6
		c0,0.2,0,0.3-0.1,0.5c-0.8,1.8-1.2,3.7-1.7,5.6c-0.4,1.4-0.7,2.9-1.1,4.3c-0.5,1.5-0.9,3-1,4.6c-0.1,1.2-0.6,2.3-1,3.5
		c-0.1,0.3-0.1,0.7-0.2,1c-0.1-0.3-0.3-0.6-0.5-1.1c0.1,0.6-0.3,1.1,0.3,1.5c-0.1,0.5-0.2,1.1-0.2,1.6c0,0.2,0.1,0.4,0.1,0.6
		c0,0.3,0.1,0.5,0,0.8c-0.4,0.9-0.5,1.9-0.6,2.8c-0.4,0.1-1,0.1-1,0.7c-0.3,0-0.2,0.3-0.2,0.5c-0.5,0.2-0.2,0.6-0.1,0.9
		c0-0.3,0-0.6,0.1-0.9c0.1-0.2,0.2-0.3,0.2-0.5c0.5,0.2,0.1,0.6,0.2,0.9c0.1,0.3-0.2,0.6,0.3,0.8c-0.2,1.2-0.4,2.3-0.6,3.5
		c-0.2,1.3-0.5,2.5-0.7,3.8c-0.1,0.5-0.1,0.9-0.2,1.4c-0.2-0.4-0.5-0.7-0.7-1.1c-0.3,0.8-0.4,1.8-0.3,2.7c-0.5,0.2-0.3,0.6-0.2,0.8
		c0.3,0.5,0.1,1-0.1,1.4c-0.4,1.1-0.5,2.2-0.5,3.4c0,0.2-0.1,0.5-0.1,0.7c-0.1,0.6-0.2,1.2,0.2,1.8c-0.2,0.8-0.6,1.6,0.2,2.5
		c0-0.9,0-1.7,0-2.5c0.2-1.3,0.4-2.5,0.6-3.8c0,0,0.1-0.1,0.2-0.1c0,1.7,0,3.5,0,5.3c0.2,0,0.5,0,0.6-0.1c0.8-0.7,1.5-1.4,2.3-2
		c0.4-0.3,0.7-0.6,1.1-0.9c0.7-0.5,1.4-0.8,1.9-1.5c0.5-0.6,1.3-1.1,1.9-1.6c0.3-0.3,0.7-0.5,1.3-0.6c-0.3,0.7-0.3,1.3,0.1,1.9
		c0.2,0,0.4,0,0.6,0l0,0c0,0.2,0,0.5,0,0.7c-0.4,0.3-0.8,0.7-1.3,1.1c0.3,0.1,0.4,0.1,0.6,0.2c-0.3,0.4-0.5,0.8-0.8,1.2
		c-0.8,0.8-1.6,1.5-2.4,2.3c-0.1,0.1-0.2,0.4-0.3,0.6l0,0c-0.3,0-0.5,0-0.5,0.4c0,0.2,0,0.4,0,0.6c0,0,0,0,0,0
		c-0.6,0.5-0.6,0.7-0.2,1.2c0.2,0.3,0.3,0.5,0.5,0.8c0,0.6-0.6,0.8-0.9,1.2c-0.3,0.4-0.9,0.6-0.8,1.2c0,0.1,0,0.2,0,0.2
		c-0.5,0.6-0.9,1.2-1.4,1.7c-0.2,0.2-0.5,0.3-0.8,0.5c-0.9,0.4-1,0.5-0.8,1.6c-0.1,0-0.3,0.1-0.4,0.1c-0.7-0.4-1.3-0.1-1.8,0.3
		c-0.4,0.4-0.9,0.3-1.3,0.4c-0.1,0-0.2,0-0.2,0c-0.2-0.2-0.7,0.1-0.7-0.3c0.1-0.1,0.1-0.1,0.2-0.2c-0.1,0-0.3,0-0.4,0
		c-0.8,0-1.6,0-2.1-0.8c-0.1-0.1-0.3-0.2-0.5-0.2c-0.6,0-0.9-0.3-1.4-0.5c-1-0.5-1.5-1.2-1.2-2.3c0.1-0.4-0.2-0.9-0.3-1.4
		c-0.1-0.7-0.2-1.5-0.3-2.2c-0.1-0.6-0.2-1.2-0.2-1.8c0.1-1.8,0.1-3.5,0.4-5.3c0.1-0.3,0-0.6,0-0.8c0-2,0.3-3.9,0.7-5.8
		c0.2-0.9,0.2-1.9,0.3-2.8c0.1-1,0.3-2,0.4-3c0.2-1.2,0.3-2.5,0.5-3.7c0.2-1.5,0.4-3.1,0.8-4.6c0.2-1.1,0.5-2.1,0.7-3.2
		c0.2-0.8,0.3-1.7,0.5-2.5c0.2-1.4,0.3-2.8,0.6-4.2c0.2-1.2,0.7-2.4,0.8-3.6c0-0.3,0.2-0.7,0.3-1c0.5-0.1,0.2-0.5,0.2-0.7
		c0.1-0.6,0.2-1.1,0.3-1.7c0.1-0.4-0.1-0.6-0.5-0.6c0-0.1,0-0.1,0-0.2c0.1-0.1,0.2-0.2,0.2-0.2l0,0c0.1-0.1,0.2-0.1,0.2-0.2
		c0.3-0.8,0.6-1.6,0.9-2.4c-0.3,0-0.5,0.1-0.7,0.3c-1.1,1.2-2.3,2.3-3.3,3.6c-0.8,1-1.9,1.7-1.9,3.2c0.2,0,0.5,0,0.7,0
		c-1.3,1.4-2.7,2.5-4.2,3.6c-0.5,0.4-1.1,0.8-1.6,1.2c-0.2,0.1-0.3,0.3-0.5,0.4c-0.8,1-1.9,1.2-3,1.4c-1.2,0.2-2.4,0.2-3.5,0.3
		c-0.6,0-1.2-0.1-1.7-0.3c-1.1-0.5-2.1-1-3.1-1.6c-0.5-0.3-1.1-0.5-1.7-0.5c-0.7,0.1-1.1-0.2-1.4-0.8c-0.2-0.5-0.6-1-0.9-1.5
		c-0.6-0.8-0.6-1.7-0.6-2.6c-0.1-0.8,0-1.6,0-2.5c-0.7,0.7-1.2,1.3-1.8,2c-0.9,1-1.8,2.1-2.7,3.1c-1.9,2-4,3.5-6.3,5
		c-0.8,0.6-1.8,0.9-2.7,1.1c-0.8,0.2-1.7,0.4-2.4,0.9c-0.1,0.1-0.4,0.2-0.6,0.1c-0.8-0.4-1.7-0.2-2.6-0.2c-1,0-1.6-0.6-2.3-1.1
		c-0.3-0.2-0.5-0.5-0.9-0.7c-0.4-0.2-0.9-0.3-1.2-0.7c-0.1-0.2-0.6-0.2-1-0.2c-0.4-0.4-0.7-0.8-1.1-1.2c-0.7-0.7-1.1-1.5-1.1-2.5
		c0-1.6-0.2-3.2-0.2-4.8c0-1.1,0.2-2.1,0.3-3.2c0.1-1.2,0.3-2.4,0.4-3.6c0-0.1-0.1-0.1-0.2-0.3c-0.3,0.2-0.6,0.3-0.8,0.6
		c-0.4,0.5-0.8,1.1-1.1,1.7c-0.3,0.7-0.8,1.4-1.5,1.8c-0.1,0.1-0.3,0.2-0.3,0.3c-0.2,1-1,1.4-1.7,1.6c-0.8,0.3-0.9,0.7-1.1,1.4
		c0-0.1-0.1-0.3-0.1-0.4c0-0.1,0-0.1,0-0.2c-0.1,0.1-0.1,0.1-0.2,0.2c-0.6,1-1.3,1.7-2.3,2.3c-0.9,0.5-1.7,1.3-2.6,2
		c-0.1,0.1-0.1,0.2-0.2,0.2c-1.2,0.4-1.7,0.8-2.4,1.5c-0.2,0.2-0.5,0.2-0.7,0.4c-0.4,0.2-0.9,0.2-1.1,0.7c0,0.1-0.1,0.2-0.2,0.2
		c-1.1-0.3-0.9,0.6-1.2,1.1c-0.1,0.2-0.2,0.3-0.4,0.4c-0.5,0.2-1.1,0.4-1.7,0.5c-0.7,0.1-1.3,0.3-2,0.6c-0.4,0.2-0.8,0.3-1.2,0.4
		c0-0.2-0.1-0.4-0.1-0.5C100.1,209.8,99.3,210.3,98.4,210.7z M170.2,203.7c0.1-0.1,0.2-0.2,0.2-0.2c0.1-0.1,0.1-0.2,0.2-0.4
		c-0.1,0-0.1,0-0.2-0.1c0,0.1,0,0.3,0,0.4C170.3,203.5,170.2,203.6,170.2,203.7c-0.1,0.1-0.2,0.1-0.3,0.2c-0.1,0-0.3,0.1-0.4,0.1
		c0,0.1,0.1,0.1,0.1,0.2c0.1-0.1,0.2-0.2,0.3-0.2C170,203.9,170.1,203.8,170.2,203.7z M178.8,226c-0.2,0.4-0.6,2-0.5,2.2
		c0.4,0.9,0.2,1.7,0,2.6c-0.1,0.5-0.1,1,0.1,1.5c0.1-0.7-0.1-1.4,0.6-1.8c-0.1-0.4-0.3-0.7-0.2-1c0.2-1.3,0.4-2.6,0.7-3.9
		c0-0.4,0-0.7,0-1.1c0-0.6-0.1-1.4,0.2-1.9c0.4-0.8,0.4-1.7,0.4-2.5c0-0.3-0.1-0.7,0.1-0.9c0.6-0.7,0.5-1.6,0.5-2.4
		c0.2-1.3,0.3-2.5,0.7-3.6c-0.2-0.5-0.4-0.9-0.6-1.3c0,0.5,0,0.9-0.1,1.2c-0.2,1.2-0.5,2.4-0.7,3.6c-0.2,1.4-0.3,2.8-0.5,4.2
		c-0.1,0.8-0.3,1.5-0.4,2.3c-0.1,0.8-0.2,1.6-0.3,2.3C178.8,225.9,178.8,225.9,178.8,226L178.8,226z M180.3,227.3
		c0,0,0.1,0.1,0.1,0.1c0.3-1.5,0.5-3,0.8-4.4c0.1-0.7,0.2-0.7-0.3-1.4c0,0.7-0.1,0.7-0.4,1.3c-0.1,0.1,0,0.3,0,0.5
		c0.2,0.9,0.2,1.8-0.5,2.5C180.2,226.4,180.2,226.9,180.3,227.3z M98.4,209.9c0.3-0.2,0.6-0.3,0.3-0.8c-0.3,0.1-0.6,0.3-1,0.5
		c0.2,0.1,0.3,0.1,0.4,0.2C98.2,209.8,98.3,209.9,98.4,209.9z M85.6,171.9C85.6,171.9,85.6,171.8,85.6,171.9c-0.1-0.1-0.1,0-0.1,0
		C85.5,171.9,85.5,171.9,85.6,171.9C85.6,171.9,85.6,171.9,85.6,171.9z M179.9,240.5C179.9,240.5,179.8,240.5,179.9,240.5
		c0,0.1,0,0.1,0,0.2C179.9,240.6,179.9,240.5,179.9,240.5C179.9,240.5,179.9,240.5,179.9,240.5z M177,251
		C177,251.1,176.9,251.1,177,251c0,0.1,0,0.1,0,0.1C177,251.1,177,251.1,177,251C177,251,177,251,177,251z"/>
	<path class="st0" d="M62.4,163.4c-0.2,0.3-0.3,0.7-0.5,1c-0.1,0.1-0.3,0.2-0.5,0.2c-0.1-0.3-0.3-0.6-0.4-0.9
		c0.1-0.1,0.2-0.2,0.4-0.2c-0.1-0.2-0.3-0.3-0.4-0.5c0.6-0.7,0.7-1.5,0.7-2.3c0.4-0.1,0.2-0.5,0.3-0.7c0.6-1,0.7-2.2,0.9-3.3
		c0.2-0.9,0.6-1.9,0.4-2.9c-0.4,0.6-0.8,1.1-1,1.8c-0.3,0.8-0.5,1.6-0.5,2.4c0,0.7-0.4,1.4,0,2c0,0.2,0,0.5,0,0.7
		c-0.5-0.1-0.6,0.3-0.6,0.6c-0.2,1-0.8,2-0.6,3c-0.8,0.8-1.1,1.8-1.4,2.9c-0.1,0.6-0.2,1.3-0.3,1.9l0,0c-0.1,0.1-0.2,0.2-0.3,0.3
		c-0.4,0.3-0.2,0.6-0.2,0.9c0.2,0,0.4-0.1,0.7-0.1c0,0.2,0,0.3-0.1,0.5c-0.1,0.1-0.3,0.2-0.4,0.3c0-0.1-0.1-0.1-0.1-0.2
		c0,0.1-0.1,0.1-0.1,0.2c-0.3,0-0.4,0-0.5,0.3c-0.4,1.1-0.8,2.2-1.2,3.4c-0.1,0.4-0.2,0.9-0.3,1.3c-0.1,0-0.1,0.1-0.2,0.1
		c0,0,0.1,0.1,0.1,0.1c0-0.1,0.1-0.1,0.1-0.2c0.3-0.3,0.5-0.7,0.8-1.1c0,0.2,0.1,0.4,0.1,0.5c-1.1,2.5-2.1,5-2.8,7.5
		c-0.1,0.2-0.1,0.5-0.3,0.6c-0.7,0.4-0.7,1.2-0.9,1.8c-0.2,0.5-0.3,1.3-0.7,1.6c-0.5,0.3-0.5,0.8-0.7,1.2c-0.4,1-0.8,2-1.1,3
		c-0.1,0.3-0.1,0.7-0.2,1c-0.1,0-0.1,0.1-0.2,0.1c0,0,0.1,0.1,0.1,0.1c0-0.1,0.1-0.1,0.1-0.2c0.1,0,0.2,0,0.2-0.1
		c0.8-1.3,1.5-2.6,2.1-3.9c1-2.2,1.6-4.4,2.4-6.7c0.1-0.2,0.2-0.4,0.3-0.6c0.2-0.4,0.5-0.9,0.7-1.3c0.2-0.3,0.3-0.6,0.5-0.9l0,0
		c0.1,1-0.3,1.9-0.5,2.9c-0.1,0.5-0.2,0.9-0.7,1.1c-0.1,0.5-0.2,1-0.3,1.4c-0.3,1-0.6,1.9-0.8,2.9c-0.2,0.9-0.9,1.7-0.7,2.7l0,0
		c-0.6,0-0.7,0.4-0.7,0.8c0,0.4,0,0.8-0.2,1.1c-0.4,0.9-0.9,1.8-1.4,2.7c-0.2,0.4-0.5,0.8-0.2,1.3c0.4-0.7,0.4-0.7,0.9-0.8
		c-0.2,0.9-0.8,1.7-0.7,2.7c0.3-0.2,0.5-0.4,0.7-0.6c0,0.5-0.1,1-0.2,1.7c-0.3,0.4-0.8,0.9-1.3,1.4c0-0.4,0.1-0.8-0.5-0.9
		c-0.4,0.2-0.8,0.4-1.2,0.6c0,0.5-0.2,1-0.7,1.4c-0.3,0.2-0.4,0.7-0.6,1c-0.2,0.4-0.5,0.8-0.8,1.2c-1.1,1.4-1.7,2.9-2.1,4.6l0,0
		c-0.4,0.2-0.2,0.5-0.2,0.7c-0.1,0-0.1,0-0.2,0.1c0,0,0.1,0.1,0.1,0.1c0-0.1,0.1-0.1,0.1-0.2c0.1,0,0.2-0.1,0.3-0.1
		c0.1,0.6-0.2,0.9-0.7,1.1c-0.5,0.2-1,0.3-1.1,0.9c-0.2,0.7-0.6,1.3-1.1,1.9c-0.2,0.2-0.2,0.5-0.2,0.8c-0.1,0.2-0.1,0.3-0.2,0.5
		c-0.1,0.1-0.1,0.2-0.2,0.2c-0.4,0.8-0.7,1.7-1.1,2.5c1.1-0.6,1.6-1.6,2.3-2.7c-0.5,0.1-0.8,0.2-1.1,0.2c0-0.1,0-0.2,0.1-0.3
		c0.1-0.2,0.2-0.3,0.3-0.5c0.3,0,0.5,0,0.8,0c0.4,0,0.4-0.2,0.4-0.5c0.1,0,0.1,0,0.2-0.1c0,0-0.1-0.1-0.1-0.1c0,0.1-0.1,0.1-0.1,0.2
		c-0.1-0.1-0.2-0.1-0.2-0.2c0.3-0.4,0.7-0.8,1-1.2c0.7,0.3,0.6-0.6,1.1-0.7c0.1-1,0.9-1.6,1.2-2.5c0.2-0.1,0.5-0.2,0.7-0.2
		c0,0.5,0,0.9-0.4,1.3c-0.2,0.2-0.2,0.5-0.3,0.8c-0.1,0-0.3,0-0.3,0.1c-0.2,0.2-0.4,0.4-0.5,0.7c0,0,0.1,0.2,0.2,0.3l0,0
		c0,0.2-0.1,0.4-0.1,0.7c-0.5,0-0.7,0.3-1,0.7c-1.1,1.9-2.3,3.7-3.5,5.6c-0.1,0.2-0.3,0.3-0.4,0.5c-0.3,0.4-0.5,0.8-0.8,1.2
		c-0.6,0.7-1.3,1.4-1.9,2.1c-0.1,0.1,0,0.3-0.1,0.5c-0.6,0.6-1.2,1.3-1.7,1.9c-0.1,0.1-0.1,0.3-0.2,0.5c-0.3,0-0.6,0.2-0.7,0.5
		c-0.5,0.5-1.1,1-1.6,1.5c-2.3,2.3-5,4.1-8,5.4c-0.1,0-0.2,0.1-0.3,0.2c-1.6,1.2-3.4,1-5.1,0.9c-0.4,0-0.8-0.1-1.3-0.3
		c-1.4-0.4-2.8-0.8-4.2-1.2c-2.5-0.6-4.7-1.8-6.7-3.3c-1.5-1.1-2.9-2.3-3.8-3.9c-0.8-1.4-1.7-2.8-2.2-4.4c-0.5-1.7-1.3-3.3-1.7-5.1
		c-0.2-1-0.4-1.9-0.4-2.9c-0.1-2.6,0-5.2,0-7.8c0-2.2,0.1-4.4,0.2-6.6c0.1-1.8,0.3-3.6,0.5-5.4c0.2-1.7,0.6-3.3,0.9-5
		c0.3-1.7,0.5-3.3,0.8-5c0.3-1.7,0.6-3.3,1-5c0.3-1.4,0.6-2.7,0.9-4.1c0.4-1.7,0.7-3.4,1-5.1c0.4-2.1,1.1-4.2,1.4-6.3
		c0.2-1.4,0.7-2.7,1-4.1c0.6-2.3,1.3-4.6,1.8-6.9c0.8-3.7,1.8-7.4,2.9-11c0.6-2.2,1.2-4.5,1.7-6.7c0.3-1.5,0.4-3,0.6-4.6
		c0-0.4-0.1-1-0.3-1.4c-0.4-0.7-0.2-1.2,0.2-1.6c0.4-0.5,0.6-0.9,0.5-1.6c0.8,0.1,1.2-0.4,1.6-1c0.5-1,1.2-1.3,2.3-1
		c0.2,0.1,0.5-0.1,0.8-0.2c0.7-0.2,0.9-0.1,1.1,0.6c0.3,1.2,1.1,2,2.1,2.4c1.2,0.5,1.8,1.5,2.4,2.4c0.8,1.3,1.4,2.7,1.8,4.2
		c0.2,0.5,0.2,1.1,0.1,1.7c-0.3,1.7-0.5,3.3-0.9,4.9c-0.5,1.7-0.9,3.4-1.3,5.1c-0.7,2.8-1.5,5.5-2.2,8.3c-0.4,1.4-0.7,2.8-1.1,4.2
		c-0.8,3.2-1.7,6.5-2.5,9.8c-0.6,2.4-1.2,4.8-1.7,7.2c-0.3,1.5-0.6,3-1,4.5c-0.4,1.5-0.7,3.1-1,4.6c-0.3,1.5-0.6,2.9-0.9,4.4
		c-0.4,1.9-0.8,3.8-1.1,5.8c-0.3,1.6-0.5,3.2-0.8,4.8c-0.2,1.4-0.5,2.8-0.7,4.2c-0.1,0.7-0.2,1.5-0.2,2.2c-0.1,2.8-0.3,5.6-0.2,8.4
		c0.1,2.5,0.4,5,1.5,7.3c0.4,0.8,1,1.4,1.7,1.8c0.4,0.2,0.8,0.5,1.3,0.7c2.1-0.7,4.2-1.7,6.1-2.9c1.4-0.8,2.4-1.9,3.3-3.1
		c0.7-0.8,1.4-1.6,2.1-2.4c2.8-3,5.2-6.3,7.3-9.8c0.7-1.1,1.3-2.2,1.9-3.4c0.5-0.9,0.8-1.9,1.2-2.8c0.4-1,0.9-1.8,1.7-2.5
		c0.1-0.1,0.2-0.1,0.2-0.1c0.5-2.1,1.8-3.9,2.6-5.9c0.1-0.2,0.7-0.3,1-0.5c0.4-1.7,0.9-3.4,1.6-4.9c0.5-1,0.9-2.1,1.4-3.1
		c0.2-0.4,0.4-0.7,0.5-1.1c0.2-0.6,0.5-1.2,0.6-1.9c0.1-0.6,0.1-1.3,0.8-1.7c0.2-0.1,0.2-0.5,0.3-0.7c0.6-2.4,1.1-4.9,1.8-7.3
		c0.3-1.2,0.8-2.5,1.3-3.6c0.9-2.1,1.5-4.2,2.2-6.3c0.1-0.2,0.1-0.5,0.1-0.7c-0.1-1.2,0-2.3,0.5-3.4c0.5-1,0.3-2,0.5-3
		c0.1-0.7,0.2-1.4,0.5-2c0.5-1,0.5-2.2,0.9-3.3c0.4-1.2,0.5-2.5,0.8-3.8c0.1-0.7,0.3-1.3,0.4-1.9c0.2-1.4,0.3-2.9,0.5-4.3
		c0.2-1.5,0.4-2.9,0.7-4.4c0-0.6,0-1.1,0-1.7c0-1,0-1.9,0-2.9c0.4-0.3,0.1-0.8,0.2-1.2c0-0.5,0.2-1.1-0.2-1.7
		c0.4-0.4,0.6-0.9,0.5-1.5c0-0.6,0.1-1.2,0.2-1.9c0.2-0.9-0.1-1.8-0.6-2.5c-0.4-0.5-0.4-1.1-0.3-1.6c0.1-0.5,0.2-0.9-0.1-1.3
		c0-0.1,0.2-0.3,0.2-0.4c0.1,0.2,0.2,0.3,0.4,0.2c0,0-0.1-0.3-0.1-0.4c0-0.3,0-0.5,0-0.9c0.4,0.3,0.7,0.5,1.2,0.8
		c0.2-0.4,0.4-0.6,0.5-0.9c0.1,0,0.2,0,0.2,0c0,0.1,0.1,0.3,0.1,0.4c0.2-0.1,0.4-0.1,0.5-0.2c0.1-0.2,0-0.5,0.1-0.7
		c0.1-0.1,0.3-0.2,0.5-0.3c0,0.1,0.1,0.1,0.1,0.2c0,0,0.1-0.1,0.1-0.1c-0.1,0-0.1-0.1-0.2-0.1c0-0.2,0-0.4,0-0.5
		c0.1-0.1,0.3-0.2,0.5-0.3c0.3,0.9,1.4,0.7,1.9,1.2c1,1,1.6,2.3,2.1,3.5c0.5,1.2,0.7,2.5,1,3.8c0.2,0.9,0.2,1.9,0.3,2.8
		c0.1,1.3,0.2,2.6,0.2,3.9c-0.4-0.3-0.5-0.7-0.5-1.2c0-0.6-0.1-1.2-0.3-1.9c-0.1-0.4-0.3-0.4-0.7-0.1c0,0.9-0.1,1.8,0,2.7
		c0.1,0.6,0,1.2,0.5,1.7c-0.1,1-0.1,1.9-0.2,2.9c-0.1,0.5-0.3,1.1-0.3,1.6c0,1.2,0,2.5,0,3.7c0,0.1,0,0.1,0,0.2
		c-0.1,0.2-0.2,0.4-0.2,0.6c0,0.8,0,1.5-0.2,2.3c-0.2,0.7-0.2,1.4-0.3,2.2c-0.4,0.1-0.2,0.5-0.2,0.7c-0.1,0.5-0.2,0.9-0.2,1.4
		c-0.3,1.7-0.6,3.4-0.8,5.1c0,0.1,0,0.3,0,0.4c0.6,0.4,0.3,1,0.3,1.5c-0.1,0.8-0.4,1.5-0.7,2.2c0,0-0.1,0.1-0.1,0.1
		c-0.1-0.2-0.2-0.3-0.3-0.5c-0.2,0.3-0.2,0.5-0.1,0.8c0.1,0.4,0.3,0.7,0.3,1.1c0,0.6-0.1,1.2-0.2,1.7c-0.5,2.3-0.8,4.6-1.6,6.8
		C62.1,162.7,62.2,163,62.4,163.4z M54.8,179.3c0.4,0,0.4,0,0.9-1.2c0.2-0.4,0.3-0.7-0.1-1.1C55.3,177.8,55.1,178.6,54.8,179.3z
		 M56.1,176.4c-0.1,0-0.1,0-0.2,0c0,0.1,0,0.2,0,0.4c0,0,0.1,0,0.1,0C56.1,176.6,56.1,176.5,56.1,176.4z M63.3,153.2
		C63.3,153.2,63.3,153.1,63.3,153.2C63.3,153.2,63.3,153.2,63.3,153.2C63.3,153.2,63.3,153.2,63.3,153.2z"/>
	<path class="st0" d="M143.1,152.8c-0.3,0-0.6,0-0.9,0.1c-1,0.3-1.1,0.3-1.7-0.5c-0.1,0-0.2,0-0.2,0c-1.5,0-1.9-0.4-2.2-1.9
		c-0.4-2-0.3-3.9,0.5-5.8c0.3-0.8,0.7-1.5,1-2.4c0.5-1.4,1.8-1.8,3-2.1c0.2-0.1,0.5,0.1,0.6-0.1c1.4-1.2,2.9-0.3,4.4-0.3
		c0.3,0,0.6,0,0.8,0.1c0.2,0,0.5,0,0.7,0.1c1,0.7,2.1,1,3.3,1.4c0.6,0.2,0.9,0.8,1.1,1.4c0.1,0.5,0.2,1,0.3,1.5c0.1,0.5,0,1-0.4,1.4
		c-0.5,0.5-0.9,1.1-1.4,1.6c-0.5,0.5-0.7,1.2-0.8,1.8c-0.1,1.1-0.7,2.1-1.3,3c-0.1,0.1-0.2,0.2-0.3,0.2c-0.6,0.1-1.2,0.2-1.9,0.3
		c-0.1,0.1-0.2,0.1-0.2,0.2c-0.4,0.1-0.8,0.3-1.2,0.2c-0.6,0-1.2-0.1-1.8-0.1c0,0-0.1-0.1-0.1-0.2c-0.1-0.1-0.2-0.2-0.3-0.2
		c0,0.1-0.1,0.2-0.1,0.2c-0.1,0.1-0.2,0.2-0.3,0.3C143.5,152.8,143.3,152.8,143.1,152.8z M149.9,151.2
		C149.9,151.2,149.9,151.2,149.9,151.2c-0.1,0-0.1,0-0.1,0C149.9,151.3,149.9,151.3,149.9,151.2
		C149.9,151.3,149.9,151.3,149.9,151.2z"/>
	<path class="st0" d="M52.3,196.7c-0.2,0.2-0.4,0.4-0.7,0.6c-0.1-1,0.5-1.8,0.7-2.7c-0.5,0.1-0.5,0.1-0.9,0.8
		c-0.3-0.5,0-0.9,0.2-1.3c0.5-0.9,1-1.8,1.4-2.7c0.2-0.3,0.2-0.8,0.2-1.1c0-0.5,0.1-0.9,0.7-0.8c-0.1,0.4-0.2,0.8-0.4,1.2
		c-0.1,0.3-0.2,0.6,0,1c0.5-0.7,0.7-1.3,0.6-2c0-0.1-0.2-0.1-0.2-0.2c-0.2-1,0.5-1.8,0.7-2.7c0.2-1,0.6-2,0.8-2.9
		c0.1-0.5,0.2-0.9,0.3-1.4c0.4-0.2,0.6-0.5,0.7-1.1c0.2-1,0.5-1.9,0.5-2.9c0.6-0.3,0.9-0.7,1-1.4c0.1-0.9,0-1.9,0.9-2.5
		c0.1,0.3,0.2,0.5,0.3,0.8c-0.3,1.4-0.7,2.7-1.4,4c-0.2,0.3-0.3,0.6-0.4,0.8c-0.2,0.3,0,0.5,0.3,0.6c0.1-0.1,0.2-0.3,0.2-0.4
		c0.1,0.3,0.2,0.5,0.3,0.7c-0.5,0.8-0.9,1.5-1.4,2.2c0-0.1-0.1-0.3-0.1-0.4c-0.1,0-0.1,0.1-0.2,0.1c0.1,0.1,0.2,0.2,0.2,0.3
		c0.1,0.2,0.2,0.3,0.2,0.5l0,0c-0.1,0.6-0.2,1.1-0.2,1.7c-0.1,0.1-0.2,0.3-0.2,0.4c-0.2,0.2-0.3,0.4-0.5,0.5
		c0.1-0.4,0.1-0.7,0.2-1.1c-0.9,0.5-1.1,0.8-0.6,1.6c0.2-0.2,0.3-0.3,0.5-0.5c0,0.5,0,1,0,1.5c-0.1,0.2-0.1,0.5-0.2,0.7
		c-0.1,0.1-0.2,0.1-0.3,0.2c-0.4,1-0.8,2-1.2,3c-0.1,0.3-0.2,0.6-0.2,0.9c-0.1,0.4-0.2,0.8-0.2,1.2c-0.1,0-0.3,0-0.3,0
		c-0.4,0.8-0.9,1.5-0.9,2.4l0,0C52.2,196.3,52.3,196.5,52.3,196.7L52.3,196.7z M53,193.1c-0.4,0.2-0.3,0.4-0.1,0.8
		C53,193.6,53,193.4,53,193.1c0.4-0.2,0.3-0.4,0-0.6C53.1,192.7,53.1,192.9,53,193.1z"/>
	<path class="st0" d="M62.4,163.4c-0.3-0.3-0.3-0.7-0.2-1.1c0.8-2.2,1.1-4.6,1.6-6.8c0.1-0.6,0.2-1.2,0.2-1.7c0-0.4-0.2-0.7-0.3-1.1
		c-0.1-0.2-0.1-0.5,0.1-0.8c0.1,0.1,0.2,0.3,0.3,0.5c0,0,0.1-0.1,0.1-0.1c0.2-0.7,0.6-1.5,0.7-2.2c0.1-0.5,0.3-1.1-0.3-1.5
		c-0.1,0,0-0.3,0-0.4c0.3-1.7,0.6-3.4,0.8-5.1c0.1-0.5,0.2-0.9,0.2-1.4c0.2,0,0.4,0,0.7,0c0,0.4,0,0.6,0,0.9
		c-0.2-0.1-0.3-0.1-0.5-0.2c0.1,0.6,0.2,1.1,0.4,1.7c0.1-0.2,0.2-0.3,0.4-0.5c0,0.4,0,0.7,0,1c0,0.1,0,0.2,0,0.3
		c-0.1,0.2-0.5,2-0.5,2.1c0.1,0.1,0.3,0.2,0.4,0.2c0,0.3,0.2,0.6-0.2,0.8c-0.3,0.3-0.3,0.4,0,0.7c-0.1,0.2-0.1,0.3-0.2,0.5
		c0-0.1-0.1-0.1-0.1-0.2c-0.2,0.7-0.7,1.4-0.6,2c0.1,0.7-0.1,1.3-0.1,2c0,0,0,0,0,0c-0.1,0.2-0.2,0.3-0.2,0.5l0,0
		c-0.1,0-0.2,0.1-0.2,0.1c-0.3,1.4-0.7,2.8-1,4.2c-0.3,1.2-0.5,2.5-0.7,3.8c-0.1,0.7-0.2,1.4-0.3,2.1c0,0,0,0,0,0
		c-0.1,0-0.3,0-0.4,0C62.6,163.4,62.5,163.4,62.4,163.4z M65.8,146.7c-0.1,0-0.2-0.1-0.3-0.1c-0.1,0.2-0.1,0.4-0.2,0.6
		c0,0,0.2,0.1,0.2,0.1C65.7,147.1,65.7,146.9,65.8,146.7z"/>
	<path class="st0" d="M47.1,207.8c-0.2,0.1-0.5,0.2-0.7,0.2c-0.4-0.1-0.8-0.2-1.2-0.3c0.4-1.7,1-3.3,2.1-4.6
		c0.3-0.4,0.5-0.8,0.8-1.2c0.2-0.3,0.3-0.8,0.6-1c0.5-0.4,0.7-0.9,0.7-1.4c0.4-0.2,0.8-0.4,1.2-0.6c0.5,0.1,0.4,0.5,0.5,0.9l0,0
		c-0.3,0-0.3,0.3-0.3,0.5c0,0,0,0,0,0c-0.1,0.1-0.2,0.2-0.3,0.3c0,0,0,0,0,0c-0.4-0.1-0.7,0.1-0.7,0.5c-0.1,0.6-0.2,1.1-0.2,1.7l0,0
		c-0.6,0.2-0.5,0.7-0.5,1.2l0,0c-0.1,0.1-0.2,0.2-0.2,0.2l0,0c-0.1,0.2-0.2,0.3-0.3,0.5l0,0c-0.1,0.2-0.2,0.3-0.3,0.5
		c-0.3,0.8-0.6,1.6-0.8,2.4c-0.1-0.1-0.1-0.1-0.2-0.2C47.1,207.5,47.1,207.7,47.1,207.8L47.1,207.8z M46.3,206.1
		c0.1-0.1,0.2-0.2,0.2-0.2c0.5-0.4,1.1-0.6,0.9-1.4c-0.3,0.2-0.6,0.4-0.9,0.6c0,0.2,0,0.5,0,0.8C46.5,205.9,46.4,206,46.3,206.1
		c-0.1,0-0.1,0-0.2,0.1c0,0,0.1,0.1,0.1,0.1C46.3,206.2,46.3,206.2,46.3,206.1z"/>
	<path class="st0" d="M248.9,195.1c0.2-0.3,0.3-0.7,0.5-1c0.2-0.3,0.4-0.5,0.7-0.9c-0.1,0.9-0.2,1.7-0.3,2.5c0,0.4-0.1,0.8-0.2,1.1
		c-0.1,1-0.3,2-0.2,3.1c0,1,0.2,2,0.6,2.8c0.5,1.2,1.1,2.3,1.7,3.5c0.1,0.2,0.1,0.5,0.1,0.7c-1.1-0.4-1.8-1.2-2.1-2.3
		c-0.1-0.3,0.2-0.7-0.3-0.8l0,0c-0.1-0.4-0.2-0.8-0.2-1.1c-0.2-1-0.3-2-0.5-3c-0.1-0.3-0.2-0.7-0.2-1c0-0.3,0-0.7,0.1-1
		c0-0.4,0-0.8,0.1-1.5c0-0.1,0.3-0.3,0.5-0.6C249.1,195.3,249,195.2,248.9,195.1L248.9,195.1z"/>
	<path class="st0" d="M56.7,185.4c0.1-0.6,0.2-1.1,0.2-1.7c0.1,0,0.1-0.1,0.2-0.1c0,0-0.1-0.1-0.1-0.1c0,0.1-0.1,0.1-0.1,0.2
		c-0.1-0.2-0.2-0.3-0.2-0.5l0,0c0.4-0.7,0.9-1.4,1.4-2.2c0-0.1-0.2-0.4-0.3-0.7c-0.1,0.2-0.2,0.3-0.2,0.4c-0.3-0.1-0.5-0.3-0.3-0.6
		c0.1-0.3,0.3-0.6,0.4-0.8c0.7-1.2,1.2-2.6,1.4-4c0.2,0,0.3,0,0.5,0c0,0.1,0,0.3,0.1,0.6c0.5-0.9,0.6-1.6,0.2-2.3
		c0.3-0.1,0.6,0.2,0.8-0.2c0.1,0,0.1,0,0.2,0c0.2,1-0.3,1.8-0.6,2.6c-0.2,0.6-0.5,1.1-0.7,1.7c-0.2,0.5-0.2,1.1-0.4,1.6
		c-0.1,0.4-0.1,0.8-0.3,1.1c-0.4,1-0.8,1.9-0.9,3c-0.3,0.2-0.4,0.3,0,0.5C57.8,185.1,57.5,185.4,56.7,185.4z M58,180
		C58,180,58,180,58,180c-0.1,0-0.1,0-0.1,0C57.9,180.1,58,180.1,58,180C58,180.1,58,180.1,58,180z M59.5,176.2
		C59.5,176.2,59.4,176.2,59.5,176.2c-0.1-0.1-0.1,0-0.1,0C59.4,176.2,59.4,176.2,59.5,176.2C59.5,176.2,59.5,176.2,59.5,176.2z"/>
	<path class="st0" d="M172.4,202.2c-0.2,0-0.5,0-0.7,0c-0.1-1.5,1.1-2.3,1.9-3.2c1-1.3,2.2-2.4,3.3-3.6c0.1-0.2,0.3-0.3,0.7-0.3
		c-0.3,0.8-0.6,1.6-0.9,2.4c-0.1,0.1-0.2,0.1-0.2,0.2l0,0c-0.1,0.1-0.2,0.2-0.2,0.2c-0.7,0.1-0.8,0.7-1,1.2l0,0
		c-0.1,0.1-0.2,0.2-0.2,0.3c-0.2,0.2-0.5,0.5-0.7,0.7c-0.1,0.1-0.2,0.2-0.3,0.3l0,0c-0.4,0.2-0.8,0.5-0.7,1
		c-0.1,0.1-0.1,0.1-0.2,0.2c-0.1,0.1-0.2,0.2-0.3,0.3c0,0,0,0,0,0c-0.1,0.1-0.2,0.2-0.3,0.3C172.6,202.2,172.5,202.2,172.4,202.2z"
		/>
	<path class="st0" d="M68.2,128.8c0.1,1.4,0.2,2.8,0.2,4.1c0.1,1.5-0.3,3-0.7,4.5c-0.4-0.4-0.5-0.9-0.5-1.4l0,0
		c0.5-0.2,0.2-0.6,0-0.9c0,0.1,0,0.3,0,0.4c-0.1,0-0.2,0-0.2,0c0.1-0.5,0.2-1.1,0.2-1.6c0-1.2-0.1-2.5,0.2-3.7
		c0-0.5-0.1-1.1,0.5-1.4l0.1,0L68.2,128.8z"/>
	<path class="st0" d="M63.1,163.4c0.1-0.7,0.1-1.4,0.3-2.1c0.2-1.3,0.4-2.5,0.7-3.8c0.3-1.4,0.7-2.8,1-4.2c0,0,0.1-0.1,0.2-0.1
		c0,0.7-0.1,1.3-0.2,2c-0.3,1.4-0.4,2.8-0.5,4.2c0,0.2,0.1,0.5,0,0.6c-0.7,0.5-0.4,1.1-0.2,1.7C64.4,162.3,63.9,163.1,63.1,163.4z"
		/>
	<path class="st0" d="M67,135.5c0.1,0,0.2,0,0.2,0c0,0.2,0,0.3,0,0.5l0,0c-0.1,0.2-0.2,0.4-0.2,0.6c0,1.1,0,2.2,0,3.3
		c0,0.7-0.5,1.3,0,2.2c0.1-1.2,0.2-2.1,0.3-3.1c0-0.1,0.2-0.3,0.3-0.4c0,0.1-0.1,0.3,0,0.3c0.5,0.6,0.4,1.2,0.2,1.9
		c-0.3,1-0.5,2.1-0.7,3.1c0,0.1-0.1,0.2-0.2,0.3c0-0.3,0-0.6,0-1c-0.2,0.2-0.2,0.3-0.4,0.5c-0.1-0.6-0.2-1.1-0.4-1.7
		c0.2,0.1,0.3,0.1,0.5,0.2c0-0.3,0-0.5,0-0.9c-0.3,0-0.5,0-0.7,0c0.1-0.3-0.2-0.6,0.2-0.7c0.5-0.8,0.8-1.7,0.7-2.7
		c-0.1-0.8,0-1.6,0-2.4c0-0.1,0-0.1,0-0.2C66.8,135.6,66.9,135.5,67,135.5z"/>
	<path class="st0" d="M68.2,128.8l-0.1,0l-0.1,0c0-0.3,0-0.7,0-1.1c-0.3-0.1-0.5-0.3-0.7-0.4c-0.4-0.5-0.4-1.1-0.5-1.7
		c-0.1-0.9,0-1.8,0-2.7c0.4-0.2,0.6-0.3,0.7,0.1c0.1,0.6,0.2,1.2,0.3,1.9c0,0.5,0.1,0.9,0.5,1.2c0.1,0.2,0.3,0.4,0.2,0.6
		C68.1,127.4,68.2,128.1,68.2,128.8z"/>
	<path class="st0" d="M62.7,163.4c0.1,0,0.3,0,0.4,0c0,0.2-0.1,0.4,0,0.6c0.5,1.2,0,2.2-0.6,3.1c-0.4,0.7-0.6,1.3-0.2,2.1
		c0.1,0.1,0,0.3,0,0.4c-0.7,0-0.6-0.5-0.7-0.9c0.1-0.3,0.2-0.5,0.3-0.8c0.1-0.4-0.2-0.5-0.5-0.4c0.2-0.6,0.5-1.2,0.7-1.8
		C62.4,164.9,62.5,164.2,62.7,163.4z"/>
	<path class="st0" d="M179.1,238.7c-0.4-0.6-0.3-1.2-0.2-1.8c0-0.2,0.2-0.5,0.1-0.7c-0.1-1.2,0.1-2.3,0.5-3.4
		c0.2-0.4,0.3-0.9,0.1-1.4c-0.1-0.2-0.2-0.7,0.2-0.8c0.1,0,0.1,0,0.2,0c0,0.8,0.2,1.5-0.2,2.3c-0.2,0.4,0.1,0.9,0,1.3
		c0,0,0.3,0.1,0.5,0.2c-0.1,0.1-0.1,0.3-0.2,0.4c-0.1,0-0.2,0-0.2,0.1c-0.2,1.3-0.4,2.5-0.6,3.8
		C179.2,238.7,179.1,238.7,179.1,238.7z"/>
	<path class="st0" d="M58.8,174.6c-0.9,0.6-0.8,1.6-0.9,2.5c-0.1,0.7-0.3,1.1-1,1.4l0,0c0-0.2,0-0.5,0.1-0.7c0.5-1.6,1-3.2,1.6-4.8
		c0.1-0.3,0.2-0.5,0.3-0.8c0.2-0.5,0.5-0.9,0.7-1.4c-0.1,0.5-0.3,1-0.2,1.4c0.2,0.5-0.3,0.8-0.3,1.2c0,0.2,0,0.5,0,0.7
		c-0.1,0.1-0.2,0.2-0.2,0.3C58.8,174.5,58.8,174.5,58.8,174.6z"/>
	<path class="st0" d="M60.5,164.3c-0.2-1.1,0.4-2,0.6-3c0-0.2,0.1-0.7,0.6-0.6l0,0c0,0.8-0.1,1.6-0.7,2.3c0.1,0.2,0.3,0.3,0.4,0.5
		c-0.1,0.1-0.2,0.2-0.4,0.2c0.1,0.3,0.3,0.6,0.4,0.9c0,0.3,0,0.5,0,0.8c0.1,0.6-0.1,1-0.6,1.3c-0.1-0.2-0.2-0.4-0.4-0.7
		c0-0.2,0-0.5,0-0.7l0,0c0.1,0,0.2,0,0.3,0c0.1,0,0.3,0,0.4-0.1c0,0,0-0.1,0-0.1c-0.1,0-0.3,0-0.4-0.1
		C60.9,164.7,61,164.4,60.5,164.3L60.5,164.3z"/>
	<path class="st0" d="M348.7,189.3c-0.4,0.1-0.7,0.2-1.4,0.3c0.4-0.4,0.6-0.7,0.9-0.9c0.5-0.5,0.7-0.8,1-1.5
		c0.2-0.4,0.6-0.7,1.1-1.3c0.1,1.2-0.3,2-0.4,2.9c-0.3,0.2-0.6,0.3-0.9,0.5c-0.1-0.1-0.1-0.1-0.2-0.2
		C348.8,189.2,348.8,189.2,348.7,189.3L348.7,189.3z"/>
	<path class="st0" d="M240.7,203.5c0.1,0,0.3,0,0.3-0.1c0.9-1.1,2.3-1.6,3.3-2.5c0.4-0.3,0.7-0.4,1.1-0.4c-0.8,0.6-1.3,1.4-2.2,1.9
		c-0.7,0.3-1.2,0.9-1.9,1.3C241.1,204,240.7,204.1,240.7,203.5z"/>
	<path class="st0" d="M296.4,213.8c-0.8-1.1-1.1-2.3-1.2-3.6c0.1,0,0.1,0,0.2,0c0.6,0.6,1.1,1.2,1,2.1c0,0.3,0,0.7,0,1.1
		C296.4,213.5,296.4,213.6,296.4,213.8z"/>
	<path class="st0" d="M67.5,138.7c-0.1,0.1-0.3,0.3-0.3,0.4c-0.1,1-0.2,1.9-0.3,3.1c-0.5-0.9,0-1.6,0-2.2c0-1.1,0-2.2,0-3.3
		c0-0.2,0.2-0.4,0.2-0.6c0,0.5,0.1,1,0.5,1.4C67.6,137.8,67.9,138.3,67.5,138.7z"/>
	<path class="st0" d="M37.9,222.1c0-0.2,0-0.4,0.1-0.5c0.6-0.7,1.2-1.4,1.9-2.1c0.4,0.5,0.1,0.9-0.2,1.3c-0.5,0.5-1,1-1.5,1.6
		C38.1,222.3,38,222.2,37.9,222.1z"/>
	<path class="st0" d="M180.3,234.4c-0.2-0.1-0.5-0.2-0.5-0.2c0.1-0.4-0.2-0.9,0-1.3c0.4-0.8,0.2-1.5,0.2-2.3
		c0.1-0.1,0.2-0.2,0.3-0.3c0.2-0.3,0.3-0.6,0.5-0.9c-0.1,0.9-0.1,1.7-0.4,2.6C180,232.7,180.3,233.6,180.3,234.4z"/>
	<path class="st0" d="M60.7,173.5c-0.1,0-0.1,0-0.2,0c-0.2-0.1-0.5-0.2-0.7-0.4c0.1-0.4,0.2-0.8,0.3-1.3c0.3-0.1,0.6-0.2,1-0.4
		c0.1,0.6,0.1,1.1,0.2,1.7C61.2,173.2,60.9,173.3,60.7,173.5z"/>
	<path class="st0" d="M295.2,206.8c0.5-0.2,0.9-0.6,1-1.1c0-0.2,0-0.5,0-0.9c0.2,0.5,0.3,0.8,0.5,1c-0.1,0.4,0.2,0.9-0.2,1.2
		c-0.3,0.2-0.7,0.5-1,0.7c-0.2,0.1-0.3,0.2-0.5,0.2c0-0.2,0-0.5,0-0.7C295.1,207.1,295.1,207,295.2,206.8z"/>
	<path class="st0" d="M185.8,241.4c0.1-0.2,0.1-0.5,0.3-0.6c0.8-0.8,1.6-1.5,2.4-2.3c0,0.2,0,0.4,0,0.5c0,0.1,0,0.2,0,0.3
		c-0.2,0.2-0.5,0.4-0.7,0.6c-0.4,0.4-0.8,0.8-1.3,1.2C186.3,241.2,186,241.3,185.8,241.4z"/>
	<path class="st0" d="M54,192.7c0.1-0.3,0.1-0.6,0.2-0.9c0.4-1,0.8-2,1.2-3c0-0.1,0.2-0.1,0.3-0.2c-0.1,1.3-0.8,2.4-1.1,3.6
		C54.6,192.4,54.2,192.5,54,192.7z"/>
	<path class="st0" d="M296.4,213.3c0-0.4-0.1-0.7,0-1.1c0.1-0.9-0.4-1.5-1-2.1c0.4-0.2,0.7-0.5,1.2-0.8c0,1.3,0.1,2.6,0,3.8
		C296.6,213.2,296.5,213.3,296.4,213.3z"/>
	<path class="st0" d="M180.8,229.4c-0.2,0.3-0.3,0.6-0.5,0.9c-0.1,0.1-0.2,0.2-0.3,0.3c-0.1,0-0.1,0-0.2,0c-0.1-1,0-1.9,0.3-2.7
		c0.2,0.3,0.4,0.7,0.7,1.1C181.1,229.1,181.1,229.2,180.8,229.4z"/>
	<path class="st0" d="M98.4,210.7c0.8-0.4,1.7-0.9,2.8-0.7c0,0.1,0.1,0.3,0.1,0.5c-0.1,0.1-0.1,0.1-0.2,0.2
		c-0.7-0.4-1.2-0.2-1.9,0.5C98.8,211.1,98.4,211.3,98.4,210.7z"/>
	<path class="st0" d="M185.6,244.3c-0.2-0.3-0.3-0.5-0.5-0.8c0.1-0.4,0.2-0.8,0.2-1.2l0,0c0.2-0.1,0.5-0.2,0.7-0.2
		c0,0.3-0.1,0.5-0.1,0.8c-0.1,0.5,0.1,0.7,0.6,0.9c0,0.2,0,0.3,0,0.5C186.2,244.3,185.9,244.3,185.6,244.3z"/>
	<path class="st0" d="M181.7,218.6c0-0.7,0.6-0.6,1-0.7c0,0.8,0.1,1.7-0.4,2.4c-0.5-0.1-0.2-0.5-0.3-0.8
		C181.8,219.2,182.2,218.8,181.7,218.6L181.7,218.6z"/>
	<path class="st0" d="M65.5,152.8c0-0.7,0.2-1.3,0.1-2c-0.1-0.6,0.4-1.3,0.6-2c0,0.1,0.1,0.1,0.1,0.2c-0.2,1-0.4,2-0.3,3
		C66.1,152.4,66,152.7,65.5,152.8z"/>
	<path class="st0" d="M59.1,167.2c0.3-1,0.6-2.1,1.4-2.9l0,0c0,0.2,0,0.5,0,0.7c0,0.1,0,0.2,0,0.3l0,0c-0.4,0.1-0.2,0.5-0.2,0.7l0,0
		c-0.3,0-0.3,0.3-0.2,0.5l0,0c-0.2,0.2-0.5,0.5-0.7,0.7l-0.1,0L59.1,167.2z"/>
	<path class="st0" d="M72.9,166.3c0.1,0.8,0,1.5-0.4,2.2c-0.1,0-0.3,0-0.5,0c0.2-0.7,0.3-1.3,0.5-1.9
		C72.5,166.4,72.8,166.3,72.9,166.3z"/>
	<path class="st0" d="M59.5,170.8c-0.2,0.5-0.5,0.9-0.7,1.4c-0.1,0.2-0.2,0.5-0.3,0.8c-0.1,0-0.2,0-0.3,0c0.1-0.7,0.2-1.4,0.3-2.2
		c0,0,0,0,0,0c0.1-0.1,0.3-0.2,0.4-0.3c0.2,0,0.4,0,0.5,0l0,0C59.5,170.7,59.5,170.7,59.5,170.8z"/>
	<path class="st0" d="M185.8,241.4c0.2-0.1,0.5-0.2,0.7-0.3c0.4-0.4,0.8-0.8,1.3-1.2c0,0.2,0,0.4,0,0.5c-0.1,0.2-0.2,0.4-0.2,0.5
		c-0.5,0.2-0.8,0.9-1.5,0.9C185.9,241.7,185.9,241.5,185.8,241.4L185.8,241.4z"/>
	<path class="st0" d="M49.5,202.7c0.1-0.6,0.1-1.2,0.2-1.7c0.1-0.3,0.4-0.5,0.7-0.5c-0.1,0.5-0.2,1-0.2,1.5
		C50.1,202.5,50,202.8,49.5,202.7z"/>
	<path class="st0" d="M296.7,200.1c-0.5,0.7-0.1,1.6-0.3,2.4c-0.5-0.7-0.6-1.9,0-2.6c0-0.1,0.2,0,0.3,0
		C296.7,199.9,296.7,200,296.7,200.1z"/>
	<path class="st0" d="M45.5,211.6c0-0.2,0.1-0.4,0.1-0.7c0.1,0,0.1-0.1,0.2-0.1c0,0-0.1-0.1-0.1-0.1c0,0.1-0.1,0.1-0.1,0.2
		c-0.1-0.1-0.2-0.3-0.2-0.3c0.2-0.2,0.3-0.5,0.5-0.7c0.1-0.1,0.2,0,0.3-0.1c0,0.3-0.1,0.6-0.1,0.9c0.1,0.1,0.2,0.1,0.4,0.2
		c-0.1,0.2-0.3,0.4-0.4,0.6c-0.1,0-0.2,0-0.3,0C45.7,211.6,45.6,211.6,45.5,211.6z"/>
	<path class="st0" d="M58.8,128.3c0,0.6,0,1.1,0,1.7c-0.4,0-0.7-0.2-0.7-0.6C58.1,128.9,58.1,128.4,58.8,128.3z"/>
	<path class="st0" d="M66.7,147c-0.2-0.1-0.4-0.1-0.4-0.2c-0.1-0.1,0.4-1.9,0.5-2.1c0,0.4,0,0.8,0,1.2c0.2,0.1,0.3,0.2,0.5,0.3
		c-0.1,0.2-0.1,0.3-0.2,0.5C66.9,146.7,66.8,146.9,66.7,147z"/>
	<path class="st0" d="M59.1,174.2c0-0.2,0-0.5,0-0.7c0.1,0,0.2,0,0.3,0c0.1,0.6,0.1,1.3,0.2,1.9c-0.2,0-0.3,0-0.5,0
		c-0.1-0.3-0.2-0.5-0.3-0.8c0-0.1,0-0.1,0-0.2C58.9,174.3,59,174.3,59.1,174.2z"/>
	<path class="st0" d="M59.5,175.4c-0.1-0.6-0.1-1.3-0.2-1.9c0.1,0.1,0.3,0.2,0.4,0.2c0.4,0.7,0.3,1.4-0.2,2.3
		C59.5,175.7,59.5,175.5,59.5,175.4z"/>
	<path class="st0" d="M52.6,196.3c0-0.9,0.5-1.6,0.9-2.4c0-0.1,0.2,0,0.3,0C53.4,194.7,53,195.5,52.6,196.3z"/>
	<path class="st0" d="M99.2,211.1c0.7-0.7,1.2-0.8,1.9-0.5C100.5,210.9,99.9,211.3,99.2,211.1z"/>
	<path class="st0" d="M295.5,207.8c0.3-0.2,0.7-0.5,1-0.7c0,0.4,0,0.7-0.1,1.2c-0.1-0.1-0.2-0.2-0.3-0.2c0-0.1,0-0.1-0.1-0.2
		c0,0.1-0.1,0.1-0.1,0.2c0,0.3,0,0.6-0.1,0.9c-0.1,0-0.1,0-0.2,0C295.6,208.6,295.6,208.2,295.5,207.8z"/>
	<path class="st0" d="M59.1,170.1c-0.2,0-0.4,0.1-0.7,0.1c0-0.3-0.2-0.6,0.2-0.9c0.1-0.1,0.2-0.2,0.3-0.3l0,0
		c0.1-0.1,0.3-0.1,0.5-0.2C59.2,169.4,59.1,169.7,59.1,170.1z"/>
	<path class="st0" d="M346.6,191.9c-0.2,0-0.4,0-0.6-0.1c0.3-0.6,0.4-1.1,1-1.4l0,0c0,0.2,0,0.5,0,0.7l0,0c-0.4,0.1-0.2,0.3-0.3,0.5
		C346.8,191.8,346.7,191.9,346.6,191.9z"/>
	<path class="st0" d="M187.9,163.2c0.1,0,0.2,0,0.3,0l0,0c0.2,0.2,0.3,0.4,0.5,0.5c-0.4,0.6-0.6,0.6-1.2-0.1
		C187.6,163.4,187.8,163.3,187.9,163.2z"/>
	<path class="st0" d="M571,217.4c-0.2-0.1-0.5-0.1-0.6-0.3c-0.1-0.1-0.1-0.4-0.1-0.5c0.1-0.1,0.4-0.2,0.5-0.1
		c0.4,0.2,0.4,0.6,0.4,0.9C571.1,217.4,571.1,217.4,571,217.4z"/>
	<path class="st0" d="M189.1,237.3c-0.2,0-0.3-0.1-0.6-0.2c0.5-0.4,0.9-0.7,1.3-1.1c0.1,0.1,0.2,0.2,0.2,0.3c0,0.1,0,0.2,0,0.3
		c-0.1,0.1-0.1,0.1-0.2,0.2C189.5,236.8,189.2,236.9,189.1,237.3L189.1,237.3z"/>
	<path class="st0" d="M55.9,187.9c0-0.5,0-1,0-1.5c0,0,0,0,0,0c0.2-0.2,0.3-0.4,0.5-0.5c0,0.4,0,0.9,0,1.3
		C56.3,187.4,56.1,187.6,55.9,187.9z"/>
	<path class="st0" d="M187.5,241c0.1-0.2,0.2-0.4,0.2-0.5c0.3,0.1,0.6,0.2,1,0.2l0,0C188.3,240.9,188,241.4,187.5,241z"/>
	<path class="st0" d="M59.3,167.2c0.2-0.2,0.5-0.5,0.7-0.7c-0.1,0.5-0.2,0.9-0.3,1.4C59.1,167.9,59.4,167.5,59.3,167.2z"/>
	<path class="st0" d="M175.2,199.1c0.1-0.5,0.3-1.1,1-1.2c0,0.1,0,0.1,0,0.2C176.1,198.7,175.7,199,175.2,199.1z"/>
	<path class="st0" d="M59,124.3c-0.1,0.4,0.2,0.9-0.2,1.2C58.4,124.8,58.5,124.5,59,124.3z"/>
	<path class="st0" d="M297.6,194.6c0-0.2,0-0.3,0-0.5c0.3,0,0.6,0.1,0.9,0.1C298.5,195.1,298,194.5,297.6,194.6z"/>
	<path class="st0" d="M185.8,241.4c0.1,0.1,0.1,0.3,0.2,0.4c0,0.1,0,0.2,0,0.3c-0.2,0.1-0.5,0.2-0.7,0.2c0-0.2,0-0.4,0-0.6
		C185.3,241.4,185.5,241.4,185.8,241.4z"/>
	<path class="st0" d="M166.1,207.5c0.2-0.1,0.3-0.3,0.5-0.4c0.1,0.3,0.1,0.5,0.2,0.8C166.4,208.1,166.1,208.1,166.1,207.5z"/>
	<path class="st0" d="M297.6,209.7c0.1-0.5,0.2-0.9,0.3-1.4c0.2,0.5,0.4,1-0.1,1.4C297.8,209.7,297.7,209.7,297.6,209.7z"/>
	<path class="st0" d="M298,197c0.1,0.3,0.2,0.5,0.3,0.8c-0.4,0.3-0.5,0.1-0.6-0.3c0-0.2-0.1-0.3-0.1-0.5
		C297.8,197,297.9,197,298,197z"/>
	<path class="st0" d="M61.4,167.5c0.3,0,0.6,0,0.5,0.4c-0.1,0.3-0.2,0.5-0.3,0.8c-0.1,0-0.1,0-0.2,0c0-0.3,0-0.7,0-1
		C61.5,167.6,61.4,167.5,61.4,167.5z"/>
	<path class="st0" d="M237.2,159c-0.5-0.2-0.2-0.6-0.3-1C237.5,158.3,237.5,158.5,237.2,159z"/>
	<path class="st0" d="M183.4,212.1c-0.6-0.4-0.2-0.9-0.3-1.5c0.2,0.5,0.3,0.8,0.5,1.1C183.6,211.8,183.5,211.9,183.4,212.1z"/>
	<path class="st0" d="M60.1,179.2c-0.2-0.3-0.2-0.6,0.1-1C60.5,178.8,60.5,178.8,60.1,179.2z"/>
	<path class="st0" d="M49,203.9c0-0.5-0.1-1,0.5-1.2C49.5,203.2,49.4,203.7,49,203.9z"/>
	<path class="st0" d="M297.6,209.7c0.1,0,0.2,0,0.2,0c0.1,0.3,0.5,0.6,0.1,1C297.4,210.5,297.7,210,297.6,209.7z"/>
	<path class="st0" d="M190.5,235.8c0-0.5,0.2-0.8,0.7-0.7l0,0C191.1,235.4,191.1,235.9,190.5,235.8L190.5,235.8z"/>
	<path class="st0" d="M43.1,216c0.2-0.2,0.4-0.4,0.7-0.7C43.8,216.1,43.8,216.1,43.1,216z"/>
	<path class="st0" d="M190.8,234.8c0.2-0.7,0.4-0.6,0.7-0.5c0,0,0.1,0.2,0.1,0.2C191.3,234.5,191.1,234.6,190.8,234.8z"/>
	<path class="st0" d="M173.3,201.4c-0.1-0.6,0.3-0.8,0.7-1C174,200.9,173.6,201.1,173.3,201.4z"/>
	<path class="st0" d="M176.4,200.3c-0.1,0.2,0.2,0.6-0.2,0.7C175.8,200.6,175.8,200.5,176.4,200.3z"/>
	<path class="st0" d="M186.5,244.3c0-0.2,0-0.3,0-0.5c0.1,0,0.4-0.1,0.4-0.1C187.1,243.9,187,244.1,186.5,244.3z"/>
	<path class="st0" d="M59.5,170.6c0-0.2,0-0.5,0.1-0.9c0.2,0.3,0.4,0.4,0.4,0.6C60.1,170.6,59.8,170.6,59.5,170.6L59.5,170.6z"/>
	<path class="st0" d="M112.1,204.6c0.1-0.1,0.1-0.2,0.2-0.2c0.1,0.1,0.3,0.2,0.3,0.3c-0.1,0.2-0.2,0.4-0.5,0.9
		C112.1,205.1,112.1,204.9,112.1,204.6z"/>
	<path class="st0" d="M188.9,239c0.1-0.2,0.2-0.5,0.4-0.8C189.5,238.7,189.4,239,188.9,239C188.9,239,188.9,239,188.9,239z"/>
	<path class="st0" d="M193.9,162.4c0.1,0.2,0.2,0.4,0.3,0.6c-0.1,0-0.2,0.1-0.3,0.1c0-0.2-0.1-0.4-0.1-0.6
		C193.7,162.5,193.8,162.5,193.9,162.4z"/>
	<path class="st0" d="M298.1,207c-0.1,0.2-0.2,0.4-0.2,0.6c0,0-0.2-0.1-0.2-0.1c0-0.2,0.1-0.4,0.2-0.6
		C298,206.9,298,206.9,298.1,207z"/>
	<path class="st0" d="M297.6,199.5c0.1-0.2,0.2-0.4,0.2-0.6c0,0,0.2,0.1,0.2,0.1c0,0.2-0.1,0.4-0.2,0.6
		C297.8,199.5,297.7,199.5,297.6,199.5z"/>
	<path class="st0" d="M35.3,225.1c0.1-0.3,0.4-0.5,0.7-0.5C36.1,225.2,35.6,225,35.3,225.1z"/>
	<path class="st0" d="M60.5,167.4c-0.1,0.2-0.2,0.4-0.2,0.6c0,0-0.2-0.1-0.2-0.1c0-0.2,0.1-0.4,0.2-0.6
		C60.4,167.3,60.4,167.3,60.5,167.4z"/>
	<path class="st0" d="M190.1,236.6c0-0.1,0-0.2,0-0.3c0-0.3,0.1-0.5,0.5-0.5l0.1,0.1C190.4,236.1,190.3,236.4,190.1,236.6z"/>
	<path class="st0" d="M236.9,179c0-0.3,0-0.6,0-1c0.1,0.1,0.3,0.2,0.4,0.3c-0.4,0.1-0.2,0.5-0.2,0.7C237.1,179,237,179,236.9,179z"
		/>
	<path class="st0" d="M143.1,152.8c0.2,0,0.5,0,0.5,0.3c0,0.1,0,0.2,0,0.4C143.2,153.4,143,153.2,143.1,152.8z"/>
	<path class="st0" d="M261.2,158c0.2,0.4,0.3,0.7-0.1,0.8c-0.1,0-0.2-0.1-0.2-0.1C261,158.5,261.1,158.3,261.2,158z"/>
	<path class="st0" d="M188.7,163.7c-0.2-0.2-0.3-0.4-0.5-0.5c0.1,0,0.3,0,0.4,0C189,163.3,189,163.5,188.7,163.7z"/>
	<path class="st0" d="M237.2,177.3c0-0.3-0.3-0.7,0.2-1C237.3,176.7,237.6,177,237.2,177.3z"/>
	<path class="st0" d="M61.5,167.7c0,0.3,0,0.7,0,1C61.1,168.3,61.1,168.1,61.5,167.7z"/>
	<path class="st0" d="M41.1,218.1c0.1-0.1,0.3-0.1,0.6-0.3c-0.2,0.3-0.3,0.5-0.4,0.7c-0.1-0.1-0.1-0.1-0.2-0.2
		C41,218.3,41,218.2,41.1,218.1z"/>
	<path class="st0" d="M188.7,240.7c0-0.1,0-0.3,0-0.3c0.1-0.1,0.2,0,0.4,0c0,0.1,0,0.2-0.1,0.3C188.9,240.7,188.8,240.6,188.7,240.7
		C188.7,240.7,188.7,240.7,188.7,240.7z"/>
	<path class="st0" d="M189.1,237.3c0.1-0.4,0.4-0.5,0.8-0.5C189.7,237.1,189.5,237.3,189.1,237.3z"/>
	<path class="st0" d="M298,197c-0.1,0-0.3,0-0.4,0c-0.1-0.2-0.1-0.5,0.3-0.5C298,196.5,298,196.8,298,197z"/>
	<path class="st0" d="M189.7,234.1c0.1,0.1,0.2,0.2,0.1,0.3c0,0.1-0.2,0.2-0.2,0.2c0,0-0.2-0.2-0.2-0.2
		C189.4,234.3,189.5,234.3,189.7,234.1z"/>
	<path class="st0" d="M59.1,113.2c0,0.1,0.2,0.4,0.1,0.4c-0.2,0.2-0.3,0.1-0.4-0.2C58.9,113.4,59,113.3,59.1,113.2z"/>
	<path class="st0" d="M60.3,166c0-0.3-0.2-0.6,0.2-0.7c0,0.2,0,0.5,0,0.7c0,0-0.1,0-0.1,0L60.3,166z"/>
	<path class="st0" d="M249.4,203.7c0.5,0.1,0.2,0.5,0.3,0.8C249.5,204.2,249.4,204,249.4,203.7z"/>
	<path class="st0" d="M297.9,204.3c0-0.2,0-0.4,0-0.5c0,0,0.1,0,0.1,0c0,0.2,0.1,0.4,0.1,0.5C298,204.3,298,204.3,297.9,204.3z"/>
	<ellipse class="st0" cx="298.2" cy="195.4" rx="0.1" ry="0.4"/>
	<path class="st0" d="M225.9,181.4c0.1-0.2,0.2-0.3,0.4-0.6c0,0.4,0,0.5,0,0.6C226.2,181.4,226,181.4,225.9,181.4z"/>
	<path class="st0" d="M237.1,179c0.1-0.2-0.2-0.6,0.2-0.7C237.3,178.5,237.6,178.9,237.1,179z"/>
	<path class="st0" d="M66.5,148.5c-0.3-0.3-0.3-0.4,0-0.7C66.5,148,66.5,148.3,66.5,148.5z"/>
	<path class="st0" d="M41.1,218.1c0,0.1,0,0.2,0,0.2c-0.1,0-0.3,0-0.4,0c0.1-0.2,0.3-0.3,0.4-0.5C41,217.9,41.1,218,41.1,218.1z"/>
	<path class="st0" d="M305.6,219.8c-0.1-0.4,0.1-0.5,0.5-0.5C305.9,219.5,305.7,219.6,305.6,219.8z"/>
	<path class="st0" d="M43,216.7c0,0.1,0,0.3,0,0.4c-0.1,0-0.1,0-0.2-0.1C42.8,216.9,42.9,216.8,43,216.7L43,216.7z"/>
	<path class="st0" d="M346.8,191.8c0-0.2-0.1-0.5,0.3-0.5C347,191.4,346.9,191.6,346.8,191.8z"/>
	<path class="st0" d="M44.9,214c0,0.1,0,0.3,0,0.4c-0.1,0-0.1,0-0.2-0.1C44.8,214.3,44.8,214.1,44.9,214L44.9,214z"/>
	<path class="st0" d="M44.9,214c0-0.1,0-0.3,0-0.4c0.1,0,0.1,0,0.2,0.1C45,213.8,45,213.9,44.9,214L44.9,214z"/>
	<path class="st0" d="M60,166.5c0-0.2-0.1-0.4,0.2-0.5C60.2,166.2,60.1,166.3,60,166.5z"/>
	<path class="st0" d="M50.7,200.4c0-0.2-0.1-0.5,0.3-0.5C50.8,200,50.7,200.2,50.7,200.4z"/>
	<path class="st0" d="M52.3,196.8c0-0.2-0.1-0.5,0.2-0.5C52.5,196.4,52.4,196.6,52.3,196.8z"/>
	<path class="st0" d="M47.1,207.8c0-0.1,0.1-0.3,0.1-0.4c0.1,0.1,0.1,0.1,0.2,0.2C47.3,207.6,47.2,207.7,47.1,207.8z"/>
	<path class="st0" d="M67.2,146.1c-0.2-0.1-0.3-0.2-0.5-0.3C66.9,145.9,67.2,145.8,67.2,146.1z"/>
	<path class="st0" d="M64,165c0-0.1-0.1-0.1-0.1-0.2c0-0.1,0-0.1,0.1-0.2c0,0,0.1,0.1,0.1,0.1C64.1,164.8,64,164.9,64,165z"/>
	<path class="st0" d="M48.2,205.2c0.1-0.2,0.2-0.3,0.3-0.5C48.5,204.9,48.5,205.1,48.2,205.2z"/>
	<path class="st0" d="M60.8,171c0-0.1,0-0.3,0-0.4c0,0,0.1,0,0.1,0c0,0.1,0,0.3,0,0.4C60.9,171,60.8,171,60.8,171z"/>
	<path class="st0" d="M48.5,204.7c0.1-0.2,0.2-0.3,0.3-0.5C48.7,204.3,48.6,204.5,48.5,204.7z"/>
	<path class="st0" d="M65.3,153.3c0.1-0.2,0.2-0.3,0.2-0.5C65.5,153,65.6,153.3,65.3,153.3z"/>
	<path class="st0" d="M188.4,239.2c0-0.1,0-0.2,0-0.3c0.2,0,0.3,0,0.5,0l0,0C188.7,239.1,188.6,239.2,188.4,239.2z"/>
	<path class="st0" d="M190.1,239c0.1,0,0.1,0.1,0.2,0.1c0,0-0.1,0.1-0.1,0.1c-0.1,0-0.1,0-0.2-0.1C190,239.1,190,239,190.1,239z"/>
	<path class="st0" d="M176.2,251c0.1,0,0.3,0,0.4,0c-0.1,0.1-0.1,0.1-0.2,0.2C176.3,251.1,176.3,251.1,176.2,251z"/>
	<path class="st0" d="M57.9,184c-0.4-0.2-0.3-0.3,0-0.5C57.9,183.7,57.9,183.9,57.9,184z"/>
	<path class="st0" d="M143.8,152.8c0-0.1,0.1-0.2,0.1-0.2c0.1,0.1,0.2,0.2,0.3,0.2C144.1,152.8,144,152.8,143.8,152.8z"/>
	<path class="st0" d="M76.1,201.3c0.1,0,0.2,0,0.2-0.1c0,0.1-0.1,0.1-0.1,0.2C76.2,201.4,76.1,201.4,76.1,201.3z"/>
	<path class="st0" d="M274.3,156.2c-0.1-0.1-0.1-0.1-0.2-0.2C274.2,156,274.3,156.1,274.3,156.2z"/>
	<path class="st0" d="M172.8,201.8c0.1-0.1,0.2-0.2,0.3-0.3C173,201.6,172.9,201.7,172.8,201.8z"/>
	<path class="st0" d="M172.6,202.1c0.1-0.1,0.2-0.2,0.3-0.3C172.7,201.9,172.7,202,172.6,202.1z"/>
	<path class="st0" d="M348.7,189.3c0-0.1,0.1-0.1,0.1-0.2c0.1,0.1,0.1,0.1,0.2,0.2C348.9,189.3,348.8,189.3,348.7,189.3z"/>
	<path class="st0" d="M50.4,200.6c0.1-0.1,0.2-0.2,0.3-0.3C50.6,200.4,50.5,200.5,50.4,200.6z"/>
	<path class="st0" d="M48.7,204.2c0.1-0.1,0.2-0.2,0.2-0.2C48.9,204,48.8,204.1,48.7,204.2z"/>
	<path class="st0" d="M174,200.4c0.1-0.1,0.2-0.2,0.3-0.3C174.2,200.2,174.1,200.3,174,200.4z"/>
	<path class="st0" d="M245.6,200.1c0.1-0.1,0.1-0.2,0.2-0.3C245.7,199.9,245.6,200,245.6,200.1z"/>
	<path class="st0" d="M117.1,200.1c0.1-0.1,0.1-0.1,0.2-0.2c0,0.1,0,0.1,0,0.2C117.3,200.1,117.2,200.1,117.1,200.1z"/>
	<path class="st0" d="M286.3,191c0,0.1,0,0.2,0,0.2c-0.1,0-0.2,0-0.3,0C286.2,191.1,286.3,191.1,286.3,191
		C286.3,191,286.3,191,286.3,191z"/>
	<path class="st0" d="M296,208c0-0.1,0.1-0.1,0.1-0.2c0,0.1,0,0.1,0.1,0.2C296.1,208,296,208,296,208L296,208z"/>
	<path class="st0" d="M82.9,180.9c0-0.1,0-0.1,0-0.2c0,0.1,0.1,0.1,0.1,0.2L82.9,180.9L82.9,180.9z"/>
	<path class="st0" d="M312.5,211.1c0.1-0.1,0.1-0.2,0.2-0.3C312.6,211,312.6,211,312.5,211.1z"/>
	<path class="st0" d="M312.5,211.3c-0.1,0-0.1,0-0.2,0c0.1-0.1,0.1-0.1,0.2-0.2C312.5,211.2,312.5,211.3,312.5,211.3z"/>
	<path class="st0" d="M45.9,211.6c0.1,0,0.2,0,0.3,0c-0.1,0.1-0.1,0.1-0.2,0.2C45.9,211.7,45.9,211.7,45.9,211.6z"/>
	<path class="st0" d="M45.8,212.2C45.8,212.2,45.8,212.2,45.8,212.2c0,0.1-0.1,0-0.1,0C45.7,212.2,45.7,212.2,45.8,212.2
		C45.7,212.1,45.8,212.2,45.8,212.2z"/>
	<path class="st0" d="M45.5,212.8C45.5,212.8,45.5,212.7,45.5,212.8c-0.1-0.1,0-0.1,0-0.2C45.5,212.7,45.6,212.7,45.5,212.8
		C45.6,212.7,45.5,212.8,45.5,212.8z"/>
	<path class="st0" d="M45.2,213.1C45.2,213.1,45.3,213.1,45.2,213.1c0.1,0,0,0.1,0,0.1C45.2,213.2,45.2,213.2,45.2,213.1
		C45.2,213.2,45.2,213.1,45.2,213.1z"/>
	<path class="st0" d="M486.5,213.3c-0.1,0.1-0.2,0.1-0.2,0.2C486.3,213.4,486.4,213.4,486.5,213.3z"/>
	<path class="st0" d="M192.7,161.5c0-0.1,0.1-0.2,0.1-0.2C193.1,161.4,192.9,161.4,192.7,161.5z"/>
	<path class="st0" d="M147.4,152.8c0.1-0.1,0.2-0.1,0.2-0.2C147.5,152.7,147.5,152.7,147.4,152.8z"/>
	<path class="st0" d="M476.2,213.8c-0.1,0.1-0.2,0.2-0.2,0.3C476,214,476.1,213.9,476.2,213.8z"/>
	<path class="st0" d="M175,199.4c0.1-0.1,0.2-0.2,0.2-0.3C175.1,199.2,175.1,199.3,175,199.4z"/>
	<path class="st0" d="M43,216.6c0-0.1,0.1-0.1,0.1-0.2c0,0,0.1,0.1,0.1,0.1C43.1,216.6,43,216.6,43,216.6L43,216.6z"/>
	<path class="st0" d="M344.7,225.1c-0.1,0.1-0.2,0.2-0.2,0.3C344.5,225.2,344.6,225.2,344.7,225.1z"/>
	<path class="st0" d="M190.1,235.1c0-0.1,0.1-0.1,0.1-0.2c0,0,0.1,0.1,0.1,0.1C190.2,235.1,190.2,235.1,190.1,235.1L190.1,235.1z"/>
	<path class="st0" d="M191.3,235.1c0-0.1,0.1-0.1,0.1-0.2c0,0,0.1,0.1,0.1,0.1C191.4,235.1,191.4,235.1,191.3,235.1L191.3,235.1z"/>
	<path class="st0" d="M189.8,235.4c0.1-0.1,0.2-0.2,0.2-0.2l0,0C190,235.2,189.9,235.3,189.8,235.4L189.8,235.4z"/>
	<path class="st0" d="M61.1,170.2C61.1,170.2,61.1,170.2,61.1,170.2c-0.1,0.1-0.1,0.1-0.2,0C61,170.2,61,170.2,61.1,170.2
		C61.1,170.1,61.1,170.2,61.1,170.2z"/>
	<path class="st0" d="M183.9,246.9c0-0.1,0-0.2,0-0.2C184.1,246.7,184.1,246.8,183.9,246.9z"/>
	<path class="st0" d="M177.1,251.6c0.1,0,0.2,0,0.2,0C177.3,251.5,177.2,251.6,177.1,251.6z"/>
	<path class="st0" d="M61,112.2c-0.1,0-0.2,0-0.2,0c0-0.1,0.1-0.1,0.1-0.2C60.9,112.1,60.9,112.2,61,112.2z"/>
	<path class="st0" d="M295.7,195.9c-0.1,1,0.2,1.8-0.2,2.6c-0.1,0.3,0.1,0.7,0.2,1.2c-0.1,0.1-0.3,0.3-0.7,0.6
		C295,198.7,294.9,197.3,295.7,195.9z"/>
	<path class="st0" d="M295.4,202.7c0.2,0,0.4,0.1,0.6,0.1c-0.2,0.7-0.5,1.3-0.5,1.9c0.1,0.6-0.3,1-0.3,1.6c-0.1,0-0.1,0-0.2,0
		C295,205.1,294.8,203.9,295.4,202.7L295.4,202.7z"/>
	<path class="st0" d="M336.2,261.8c-0.1,0-0.4-0.1-0.4-0.1c0-0.2,0-0.4,0.1-0.5c0.3-0.2,0.7-0.4,1.4-0.7c-0.2,0.4-0.4,0.6-0.5,0.8
		c0.2,0,0.4,0.1,0.7,0.1c-0.2,0.3-0.4,0.7-0.6,0.8C336.5,262.4,336.2,262.3,336.2,261.8c0.1,0,0.1,0,0.2-0.1c0,0-0.1-0.1-0.1-0.1
		C336.3,261.6,336.3,261.7,336.2,261.8z"/>
	<path class="st0" d="M295.4,202.7L295.4,202.7c-0.6-0.7-0.4-1.4-0.3-2.2c0.6,0.3,0.2,0.8,0.5,1.1
		C295.8,202.1,295.4,202.4,295.4,202.7z"/>
	<path class="st0" d="M249.7,193c-0.2-1.3-0.1-1.3,0.9-1.8C250.3,191.9,250.1,192.4,249.7,193z"/>
	<path class="st0" d="M386.6,220.8c-0.6,0.8-1,0.1-1.7,0C385.7,220.4,386.1,220.4,386.6,220.8z"/>
	<path class="st0" d="M337.9,259.6c0.2-0.3,0.4-0.6,0.9-0.7c0,0.2,0,0.4,0.1,0.6C338.5,259.6,338.2,259.6,337.9,259.6
		C337.9,259.6,337.9,259.6,337.9,259.6z"/>
	<path class="st0" d="M337,259.4c0-0.4,0.2-0.6,0.7-0.7c0,0.2,0,0.4,0.1,0.6C337.4,259.3,337.2,259.4,337,259.4L337,259.4z"/>
	<path class="st0" d="M296.2,204.8c-0.5-0.5,0-0.9,0.1-1.4C296.5,203.9,296.5,204.3,296.2,204.8z"/>
	<path class="st0" d="M337.9,259.6c0,0.4-0.2,0.6-0.7,0.7C337.3,259.9,337.4,259.6,337.9,259.6L337.9,259.6z"/>
	<path class="st0" d="M295,206.3c0.1,0,0.1,0,0.2,0c0,0.2,0,0.3,0,0.5c-0.1,0.2-0.2,0.3-0.2,0.5C295,207,295,206.7,295,206.3z"/>
	<path class="st0" d="M347.1,190.5c0-0.1,0-0.3,0-0.4c0.1,0,0.1,0,0.2,0.1C347.2,190.3,347.1,190.4,347.1,190.5L347.1,190.5z"/>
	<path class="st0" d="M286.3,191c0-0.1,0.1-0.1,0.1-0.2c0,0,0.1,0.1,0.1,0.1C286.4,190.9,286.4,191,286.3,191L286.3,191z"/>
	<path class="st0" d="M263.1,182.3c0,0.1-0.1,0.1-0.1,0.2c0,0-0.1-0.1-0.1-0.1C262.9,182.4,263,182.4,263.1,182.3L263.1,182.3z"/>
	<path class="st0" d="M248.9,195.1c0,0.1-0.1,0.1-0.1,0.2c0,0-0.1-0.1-0.1-0.1C248.8,195.1,248.8,195.1,248.9,195.1L248.9,195.1z"/>
	<path class="st0" d="M337,259.4c-0.1,0.1-0.2,0.2-0.2,0.2l0,0C336.8,259.5,336.9,259.5,337,259.4L337,259.4z"/>
	<path class="st0" d="M336.5,259.9c0.1-0.1,0.2-0.2,0.2-0.2l0,0C336.7,259.7,336.6,259.8,336.5,259.9L336.5,259.9z"/>
	<path class="st0" d="M336.5,259.9c0,0.1-0.1,0.1-0.1,0.2c0,0-0.1-0.1-0.1-0.1C336.4,259.9,336.4,259.9,336.5,259.9
		C336.5,259.9,336.5,259.9,336.5,259.9z"/>
	<path class="st0" d="M178.8,225.8c0.1-0.8,0.1-1.6,0.3-2.3c0.1-0.8,0.3-1.5,0.4-2.3c0.2-1.4,0.3-2.8,0.5-4.2
		c0.2-1.2,0.5-2.4,0.7-3.6c0.1-0.4,0.1-0.8,0.1-1.2c0.2,0.4,0.3,0.8,0.6,1.3c-0.3,1-0.5,2.3-0.7,3.6c-0.1,0.8,0,1.6-0.5,2.4
		c-0.2,0.2-0.1,0.6-0.1,0.9c0,0.9,0,1.7-0.4,2.5c-0.3,0.5-0.1,1.3-0.2,1.9c0,0.4,0,0.7,0,1.1C179.3,225.8,179.1,225.8,178.8,225.8z"
		/>
	<path class="st0" d="M178.8,225.8c0.2,0,0.4,0,0.7,0c-0.2,1.3-0.5,2.6-0.7,3.9c0,0.3,0.1,0.6,0.2,1c-0.7,0.4-0.5,1.1-0.6,1.8
		c-0.2-0.5-0.2-1.1-0.1-1.5c0.2-0.9,0.4-1.8,0-2.6c-0.1-0.2,0.3-1.8,0.5-2.2c0,0.2,0,0.4,0.1,0.7c0.1,0,0.1-0.1,0.2-0.1
		c-0.1-0.2-0.2-0.4-0.3-0.6C178.8,225.9,178.8,225.9,178.8,225.8z"/>
	<path class="st0" d="M180.3,227.3c-0.1-0.5-0.1-0.9-0.2-1.4c0.8-0.7,0.7-1.6,0.5-2.5c0-0.2-0.1-0.4,0-0.5c0.3-0.6,0.3-0.6,0.4-1.3
		c0.4,0.7,0.4,0.7,0.3,1.4c-0.3,1.5-0.6,3-0.8,4.4C180.4,227.4,180.4,227.4,180.3,227.3z"/>
	<path class="st0" d="M179.1,238.7c0.1,0,0.1,0,0.2,0c0,0.8,0,1.6,0,2.5C178.4,240.3,178.9,239.5,179.1,238.7z"/>
	<path class="st0" d="M98.4,209.9c-0.1,0-0.2-0.1-0.3-0.2c-0.1,0-0.2-0.1-0.4-0.2c0.4-0.2,0.7-0.3,1-0.5
		C99.1,209.6,98.7,209.7,98.4,209.9z"/>
	<path class="st0" d="M185.3,242.3c-0.1,0.4-0.2,0.8-0.2,1.2C184.7,243,184.7,242.8,185.3,242.3z"/>
	<path class="st0" d="M181.4,219.1c0,0.3,0,0.6-0.1,0.9C181.3,219.6,181,219.3,181.4,219.1L181.4,219.1z"/>
	<path class="st0" d="M181.7,218.6c-0.1,0.2-0.2,0.3-0.2,0.5l0,0C181.5,218.9,181.4,218.6,181.7,218.6L181.7,218.6z"/>
	<path class="st0" d="M169.9,203.9c-0.1,0.1-0.2,0.2-0.3,0.2c0-0.1-0.1-0.1-0.1-0.2C169.7,204,169.8,204,169.9,203.9L169.9,203.9z"
		/>
	<path class="st0" d="M170.4,203.5c0-0.1,0-0.3,0-0.4c0.1,0,0.1,0,0.2,0.1C170.6,203.2,170.5,203.3,170.4,203.5L170.4,203.5z"/>
	<path class="st0" d="M170.2,203.7c0.1-0.1,0.2-0.2,0.2-0.2c0,0,0,0,0,0C170.3,203.6,170.3,203.6,170.2,203.7
		C170.2,203.7,170.2,203.7,170.2,203.7z"/>
	<path class="st0" d="M169.9,203.9c0.1-0.1,0.2-0.2,0.2-0.2l0,0C170.1,203.8,170,203.9,169.9,203.9L169.9,203.9z"/>
	<path class="st0" d="M176.2,197.9c0.1-0.1,0.2-0.2,0.2-0.2C176.3,197.8,176.3,197.9,176.2,197.9z"/>
	<path class="st0" d="M176.4,197.7c0.1-0.1,0.2-0.1,0.2-0.2C176.6,197.6,176.5,197.6,176.4,197.7z"/>
	<path class="st0" d="M85.6,171.9C85.6,171.9,85.6,171.9,85.6,171.9c-0.1,0-0.1,0-0.1,0C85.5,171.9,85.6,171.8,85.6,171.9
		C85.6,171.8,85.6,171.9,85.6,171.9z"/>
	<path class="st0" d="M179.9,240.5C179.9,240.5,179.9,240.5,179.9,240.5c0.1,0.1,0,0.1,0,0.2C179.9,240.6,179.8,240.6,179.9,240.5
		C179.8,240.5,179.9,240.5,179.9,240.5z"/>
	<path class="st0" d="M177,251C177,251,177,251,177,251c0.1,0.1,0,0.1,0,0.1C177,251.2,177,251.1,177,251
		C176.9,251.1,177,251.1,177,251z"/>
	<path class="st0" d="M58.3,173c0.1,0,0.2,0,0.3,0c-0.5,1.6-1,3.2-1.6,4.8c-0.1,0.2-0.1,0.5-0.1,0.7c-0.2,0.3-0.3,0.6-0.5,0.9
		c-0.2,0.4-0.5,0.8-0.7,1.3c-0.1,0.2-0.2,0.4-0.3,0.6c-0.8,2.2-1.5,4.5-2.4,6.7c-0.6,1.3-1.4,2.6-2.1,3.9c0,0.1-0.1,0.1-0.2,0.1l0,0
		c0.1-0.3,0.1-0.7,0.2-1c0.3-1,0.7-2,1.1-3c0.2-0.4,0.2-0.8,0.7-1.2c0.4-0.3,0.5-1,0.7-1.6c0.2-0.6,0.2-1.4,0.9-1.8
		c0.2-0.1,0.2-0.4,0.3-0.6c0.8-2.6,1.8-5.1,2.8-7.5c0-0.1,0-0.2-0.1-0.5c-0.3,0.4-0.6,0.7-0.8,1.1l0,0c0.1-0.5,0.1-0.9,0.3-1.3
		c0.4-1.1,0.8-2.2,1.2-3.4c0.1-0.3,0.2-0.4,0.5-0.3l0,0c-0.2,0.7-0.4,1.3-0.6,2c-0.1,0.3-0.1,0.6-0.1,1.1
		C57.9,173.4,58.1,173.2,58.3,173z"/>
	<path class="st0" d="M45.1,207.8c0.4,0.1,0.8,0.2,1.2,0.3c-0.3,0.9-1.1,1.5-1.2,2.5c-0.5,0.1-0.4,1-1.1,0.7c-0.3,0.4-0.7,0.8-1,1.2
		c0.1,0.1,0.2,0.1,0.2,0.2l0,0c0,0.3,0,0.5-0.4,0.5c-0.3,0-0.5,0-0.8,0l0,0c0.1-0.3,0.1-0.6,0.2-0.8c0.5-0.6,0.9-1.2,1.1-1.9
		c0.2-0.6,0.6-0.7,1.1-0.9c0.5-0.2,0.8-0.5,0.7-1.1C45.1,208.2,45.1,208,45.1,207.8L45.1,207.8z"/>
	<path class="st0" d="M61.7,160c-0.3-0.7,0-1.4,0-2c0-0.8,0.2-1.6,0.5-2.4c0.2-0.6,0.6-1.2,1-1.8c0.2,1-0.1,2-0.4,2.9
		c-0.3,1.1-0.4,2.3-0.9,3.3C61.9,160,61.8,160,61.7,160z"/>
	<path class="st0" d="M41.7,213.8c0.3-0.1,0.6-0.1,1.1-0.2c-0.7,1.1-1.2,2.1-2.3,2.7C40.9,215.5,41.3,214.6,41.7,213.8L41.7,213.8z"
		/>
	<path class="st0" d="M67,135.5c-0.1,0-0.2,0-0.3,0c0-1.2,0-2.5,0-3.7c0-0.5,0.2-1.1,0.3-1.6c0.1,0,0.3,0,0.4,0
		c-0.3,1.2-0.2,2.5-0.2,3.7C67.2,134.5,67.1,135,67,135.5z"/>
	<path class="st0" d="M66.7,135.8c0,0.8-0.1,1.6,0,2.4c0.1,1-0.2,1.9-0.7,2.7c0.1-0.7,0.1-1.5,0.3-2.2c0.2-0.8,0.2-1.5,0.2-2.3
		C66.5,136.2,66.7,136,66.7,135.8z"/>
	<path class="st0" d="M67.4,130.3c-0.1,0-0.3,0-0.4,0c0.1-1,0.1-1.9,0.2-2.9c0.2,0.1,0.5,0.3,0.7,0.4c0,0.4,0,0.7,0,1.1
		C67.4,129.2,67.5,129.7,67.4,130.3z M67.6,128.4C67.5,128.4,67.5,128.4,67.6,128.4C67.5,128.5,67.6,128.5,67.6,128.4
		C67.6,128.4,67.6,128.4,67.6,128.4z"/>
	<path class="st0" d="M54.8,179.3c0.3-0.7,0.5-1.5,0.8-2.3c0.5,0.4,0.3,0.7,0.1,1.1C55.2,179.3,55.2,179.3,54.8,179.3z"/>
	<path class="st0" d="M61.7,160c0.1,0,0.2,0,0.2,0c-0.1,0.2,0.2,0.6-0.3,0.7l0,0C61.7,160.5,61.7,160.3,61.7,160z"/>
	<path class="st0" d="M45.1,207.8c0,0.2,0,0.4,0,0.6c-0.1,0-0.2,0.1-0.3,0.1l0,0C44.9,208.2,44.7,207.9,45.1,207.8z"/>
	<path class="st0" d="M56.1,176.4c0,0.1,0,0.2,0,0.4c0,0-0.1,0-0.1,0c0-0.1,0-0.2,0-0.4C56,176.4,56.1,176.4,56.1,176.4z"/>
	<path class="st0" d="M42,213.1c-0.1,0.2-0.2,0.3-0.3,0.5l0,0C41.9,213.4,41.9,213.2,42,213.1L42,213.1z"/>
	<path class="st0" d="M63.3,153.2C63.3,153.2,63.3,153.2,63.3,153.2C63.3,153.2,63.3,153.2,63.3,153.2
		C63.3,153.1,63.3,153.2,63.3,153.2z"/>
	<path class="st0" d="M44.9,208.5c0,0.1-0.1,0.1-0.1,0.2c0,0-0.1-0.1-0.1-0.1C44.8,208.6,44.8,208.5,44.9,208.5
		C44.9,208.5,44.9,208.5,44.9,208.5z"/>
	<path class="st0" d="M43.2,212.6c0-0.1,0.1-0.1,0.1-0.2c0,0,0.1,0.1,0.1,0.1C43.3,212.5,43.3,212.6,43.2,212.6L43.2,212.6z"/>
	<path class="st0" d="M41.7,213.8L41.7,213.8c0-0.1,0-0.2,0.1-0.2l0,0C41.7,213.6,41.7,213.7,41.7,213.8z"/>
	<path class="st0" d="M56.4,175.9c0,0.1-0.1,0.1-0.1,0.2c0,0-0.1-0.1-0.1-0.1C56.3,175.9,56.4,175.9,56.4,175.9L56.4,175.9z"/>
	<path class="st0" d="M50.7,191.9c0,0.1-0.1,0.1-0.1,0.2c0,0-0.1-0.1-0.1-0.1C50.5,192,50.6,192,50.7,191.9L50.7,191.9z"/>
	<path class="st0" d="M58.3,170.8c0-0.1,0.1-0.1,0.1-0.2c0,0.1,0.1,0.1,0.1,0.2l0,0C58.5,170.8,58.4,170.8,58.3,170.8L58.3,170.8z"
		/>
	<path class="st0" d="M58.8,169.1c-0.1,0.1-0.2,0.2-0.3,0.3C58.6,169.3,58.7,169.2,58.8,169.1z"/>
	<path class="st0" d="M62.2,111.5c0.1,0,0.1,0.1,0.2,0.1c0,0-0.1,0.1-0.1,0.1C62.2,111.7,62.2,111.6,62.2,111.5L62.2,111.5z"/>
	<path class="st0" d="M149.9,151.2C149.9,151.3,149.9,151.3,149.9,151.2c0,0.1-0.1,0-0.1,0C149.8,151.2,149.9,151.2,149.9,151.2
		C149.9,151.2,149.9,151.2,149.9,151.2z"/>
	<path class="st0" d="M55.9,186.4c-0.1,0.2-0.3,0.3-0.5,0.5c-0.4-0.8-0.3-1.1,0.6-1.6C56.1,185.7,56,186.1,55.9,186.4
		C55.9,186.4,55.9,186.4,55.9,186.4z"/>
	<path class="st0" d="M54,189.5c0.1,0.1,0.2,0.1,0.2,0.2c0,0.7-0.1,1.4-0.6,2c-0.2-0.4-0.1-0.7,0-1C53.8,190.3,53.9,189.9,54,189.5
		L54,189.5z"/>
	<path class="st0" d="M53.1,193.1c0,0.2,0,0.4-0.1,0.8C52.8,193.5,52.7,193.3,53.1,193.1L53.1,193.1z"/>
	<path class="st0" d="M53,193.1c0-0.2,0-0.4,0-0.6C53.3,192.7,53.4,193,53,193.1L53,193.1z"/>
	<path class="st0" d="M56.6,183.3c-0.1-0.1-0.2-0.2-0.2-0.3c0.1,0,0.1-0.1,0.2-0.1C56.6,183,56.6,183.2,56.6,183.3L56.6,183.3z"/>
	<path class="st0" d="M65.8,146.7c-0.1,0.2-0.1,0.4-0.2,0.6c0,0-0.2-0.1-0.2-0.1c0-0.2,0.1-0.4,0.2-0.6
		C65.6,146.7,65.7,146.7,65.8,146.7z"/>
	<path class="st0" d="M46.6,205.9c0-0.3,0-0.5,0-0.8c0.3-0.2,0.6-0.4,0.9-0.6C47.6,205.2,47,205.5,46.6,205.9L46.6,205.9z"/>
	<path class="st0" d="M46.3,206.1c0.1-0.1,0.2-0.2,0.2-0.2c0,0,0,0,0,0C46.5,205.9,46.4,206,46.3,206.1
		C46.3,206.1,46.3,206.1,46.3,206.1z"/>
	<path class="st0" d="M46.3,206.1c0,0.1-0.1,0.1-0.1,0.2c0,0-0.1-0.1-0.1-0.1C46.2,206.2,46.3,206.1,46.3,206.1
		C46.3,206.1,46.3,206.1,46.3,206.1z"/>
	<path class="st0" d="M56.9,183.8c0-0.1,0.1-0.1,0.1-0.2c0,0,0.1,0.1,0.1,0.1C57,183.7,57,183.8,56.9,183.8
		C56.9,183.8,56.9,183.8,56.9,183.8z"/>
	<path class="st0" d="M58,180C58,180.1,58,180.1,58,180c0,0.1-0.1,0-0.1,0C57.9,180,57.9,180,58,180C58,180,58,180,58,180z"/>
	<path class="st0" d="M59.5,176.2C59.5,176.2,59.5,176.2,59.5,176.2c-0.1,0-0.1,0-0.1,0C59.4,176.2,59.4,176.2,59.5,176.2
		C59.4,176.2,59.5,176.2,59.5,176.2z"/>
	<path class="st0" d="M67.2,136c0-0.2,0-0.3,0-0.5c0-0.1,0-0.3,0-0.4C67.4,135.4,67.7,135.8,67.2,136z"/>
	<path class="st0" d="M59.1,174.2c-0.1,0.1-0.2,0.2-0.2,0.3C58.9,174.3,59,174.3,59.1,174.2z"/>
	<path class="st0" d="M60.5,165.1c0-0.2,0-0.5,0-0.7c0.5,0.1,0.4,0.4,0.3,0.7l0,0C60.7,165.1,60.6,165.1,60.5,165.1z"/>
	<path class="st0" d="M60.8,165.1c0.1,0,0.3,0,0.4,0.1c0,0,0,0.1,0,0.1c-0.1,0-0.3,0-0.4,0.1C60.7,165.2,60.7,165.1,60.8,165.1
		L60.8,165.1z"/>
	<path class="st0" d="M60.7,165.1c0,0.1,0,0.2,0,0.2c-0.1,0-0.2,0-0.3,0c0-0.1,0-0.2,0-0.3C60.6,165.1,60.7,165.1,60.7,165.1z"/>
	<path class="st0" d="M58.3,170.8c0.1,0,0.2,0,0.2,0c-0.1,0.7-0.2,1.4-0.3,2.2c-0.2,0.2-0.3,0.5-0.7,1c0-0.6,0-0.9,0.1-1.1
		C57.9,172.1,58.1,171.5,58.3,170.8z"/>
	<path class="st0" d="M45.6,210.9c0-0.1,0.1-0.1,0.1-0.2c0,0,0.1,0.1,0.1,0.1C45.7,210.8,45.7,210.9,45.6,210.9
		C45.6,210.9,45.6,210.9,45.6,210.9z"/>
	<path class="st0" d="M336.2,261.8c0-0.1,0.1-0.1,0.1-0.2c0,0,0.1,0.1,0.1,0.1C336.4,261.7,336.3,261.8,336.2,261.8
		C336.3,261.8,336.2,261.8,336.2,261.8z"/>
	<path class="st0" d="M178.8,226c0.1,0.2,0.2,0.4,0.3,0.6c-0.1,0-0.1,0.1-0.2,0.1C178.9,226.5,178.8,226.2,178.8,226L178.8,226z"/>
	<path class="st0" d="M67.6,128.4C67.6,128.4,67.6,128.4,67.6,128.4C67.6,128.5,67.5,128.5,67.6,128.4
		C67.5,128.4,67.5,128.4,67.6,128.4z"/>
</g>
<g>
	<g>
		<g>
			<path class="st1" d="M379.1,275c0,1.5,0,2.5,1.4,3.3v0.1h-4.6v-0.1c1.4-0.8,1.4-1.9,1.4-3.3v-10.4c0-1.5,0-2.5-1.4-3.3v-0.1h3.8
				v0c0.1,0.3,0.2,0.4,0.4,0.7l0.4,0.5l9.6,12.1v-9.9c0-1.5,0-2.5-1.4-3.3v-0.1h4.6v0.1c-1.4,0.8-1.4,1.8-1.4,3.3v14.7
				c-1.9-0.6-2.7-1.5-3.8-3l-9-11.4V275z"/>
			<path class="st1" d="M414.4,269.7c0,5.3-4.4,9.2-9.6,9.2c-5.2,0-9.6-3.7-9.6-9.1c0-5,4.3-9.1,9.8-9
				C410.5,260.7,414.4,264.9,414.4,269.7z M398.1,269.5c0,3.7,2.6,7.4,6.7,7.4c4,0,6.5-2.9,6.5-6.8c0-3.8-2.4-7.5-6.6-7.5
				C400.7,262.7,398.1,265.6,398.1,269.5z"/>
			<path class="st1" d="M423,261.2c3.5,0,5.4,1.8,5.4,4.2c0,2.3-2,4.1-4.2,4.6l3.8,4.7c1.1,1.4,2.7,2.7,4.2,3.7h-2.4
				c-1.4,0-2.3-0.3-3-1.3l-3.2-4l-2.4-3.7c2.1-0.3,4.5-1.3,4.5-3.7c0-1.9-1.6-3-3.4-2.9c-0.6,0-1.2,0.1-1.8,0.2v11.7
				c0,1.2-0.2,3.1,1.2,3.6v0.1h-5v-0.1c1.3-0.5,1.2-2.4,1.2-3.6v-9.9c0-1.2,0.2-3.1-1.2-3.6v-0.1H423z"/>
			<path class="st1" d="M439.4,275c0,1.5,0,2.5,1.4,3.3v0.1h-5.2v-0.1c1.3-0.5,1.2-2.4,1.2-3.6v-11.7h-2.3c-1.1,0-2.3,0.3-3.1,1
				h-0.1l0.9-3.1h0.1c0.3,0.1,0.7,0.1,1,0.2h10.4c0.4,0,0.9,0,1.2-0.2h0.1l-0.8,3.1H444c-0.3-0.9-1.4-1-2.3-1h-2.4V275z"/>
			<path class="st1" d="M451.3,270v4.7c0,1.2-0.2,3.1,1.2,3.6v0.1h-5v-0.1c1.3-0.5,1.2-2.4,1.2-3.6v-9.9c0-1.2,0.2-3.1-1.2-3.6v-0.1
				h5v0.1c-1.3,0.5-1.2,2.4-1.2,3.6v3.2h9.5v-3.2c0-1.2,0.2-3.1-1.2-3.6v-0.1h5v0.1c-1.3,0.5-1.2,2.4-1.2,3.6v9.9
				c0,1.2-0.2,3.1,1.2,3.6v0.1h-5v-0.1c1.3-0.5,1.2-2.4,1.2-3.6V270H451.3z"/>
			<path class="st1" d="M479.8,274.8c0,1.2-0.2,3.1,1.1,3.6v0.1h-5v-0.1c1.3-0.5,1.2-2.4,1.2-3.6v-9.9c0-1.2,0.2-3.1-1.2-3.6v-0.1
				h8.4c0.4,0,0.9,0.1,1.2-0.1h0.1v3h-0.1c-0.8-0.9-1.9-1-3.1-1c-0.9,0-1.8,0-2.7,0.2v4.9h3.1c0.4,0,0.8,0,1.1-0.2h0.1v2.8H484
				c-0.4-0.8-1.5-0.7-2.3-0.7h-1.9V274.8z"/>
			<path class="st1" d="M496.5,276.6c1.8,0.1,3.3-0.5,4.6-1.6h0.1l-1.4,3.5h-10.8v-0.1c1.3-0.5,1.2-2.4,1.2-3.6v-9.9
				c0-1.2,0.2-3.1-1.2-3.6v-0.1h5v0.1c-1.3,0.5-1.2,2.4-1.2,3.6v11.4L496.5,276.6z"/>
			<path class="st1" d="M521,269.7c0,5.3-4.4,9.2-9.6,9.2c-5.2,0-9.6-3.7-9.6-9.1c0-5,4.3-9.1,9.8-9
				C517.1,260.7,521,264.9,521,269.7z M504.8,269.5c0,3.7,2.6,7.4,6.7,7.4c4,0,6.5-2.9,6.5-6.8c0-3.8-2.4-7.5-6.6-7.5
				C507.4,262.7,504.8,265.6,504.8,269.5z"/>
			<path class="st1" d="M529.4,261.2c3.5,0,5.4,1.8,5.4,4.2c0,2.3-2,4.1-4.2,4.6l3.8,4.7c1.1,1.4,2.7,2.7,4.2,3.7h-2.4
				c-1.4,0-2.3-0.3-3-1.3l-3.2-4l-2.4-3.7c2.1-0.3,4.5-1.3,4.5-3.7c0-1.9-1.6-3-3.4-2.9c-0.6,0-1.2,0.1-1.8,0.2v11.7
				c0,1.2-0.2,3.1,1.2,3.6v0.1h-5v-0.1c1.3-0.5,1.2-2.4,1.2-3.6v-9.9c0-1.2,0.2-3.1-1.2-3.6v-0.1H529.4z"/>
			<path class="st1" d="M540.9,264.9c0-1.2,0.2-3.1-1.2-3.6v-0.1h5v0.1c-1.3,0.5-1.2,2.4-1.2,3.6v9.9c0,1.2-0.2,3.1,1.2,3.6v0.1h-5
				v-0.1c1.3-0.5,1.2-2.4,1.2-3.6V264.9z"/>
			<path class="st1" d="M549.3,264.8c0-1.2,0.2-3.1-1.2-3.5v-0.1h6.4c6,0,9.7,3.2,9.7,8.5c0,5.2-4,8.8-9.8,8.8h-6.3v-0.1
				c1.3-0.9,1.2-2.1,1.2-3.7V264.8z M551.9,276.4c0.6,0.1,1.3,0.2,1.9,0.2c3.9,0,7.4-2,7.4-6.6c0-4.6-2.6-6.9-6.9-6.9
				c-0.8,0-1.6,0.1-2.4,0.3V276.4z"/>
			<path class="st1" d="M569.6,272l-1.4,3.7c-0.5,1.5-0.7,2.2,0.5,2.7v0.1h-4.8v-0.1c1.5-0.8,2-2.2,2.5-3.7l4.4-10.9
				c0.4-0.9,0.9-2-0.4-2.4v-0.1h4.1l5.4,13.4c0.6,1.5,1.1,3,2.6,3.7v0.1h-5.4v-0.1c1.3-0.6,1.1-0.9,0.4-2.7l-1.4-3.7H569.6z
				 M572.8,263.4l-2.6,6.6h5.2L572.8,263.4z"/>
		</g>
		<path class="st1" d="M406.2,246.7c-1.1,1.5-3,2.6-5.9,2.6c-2.1,0-4.1-0.6-5.4-2c-1.1-1.1-1.6-2.6-1.6-5.3v-6.7
			c0-1.2,0.2-3.1-1.2-3.6v-0.1h5v0.1c-1.3,0.5-1.2,2.4-1.2,3.6v6.7c0,4,1.7,5.4,4.6,5.4c1.9,0,3.3-0.9,4.1-2.1
			c0.6-0.8,0.5-3,0.5-3.9v-6.1c0-1.2,0.2-3.1-1.2-3.6v-0.1h4.2l0,0.1c-1.3,0.5-1.2,2.4-1.2,3.6v4.8
			C407.2,244.2,406.9,245.8,406.2,246.7z"/>
		<path class="st1" d="M414.8,245.5c0,1.5,0,2.5,1.4,3.3v0.1h-4.6v-0.1c1.4-0.8,1.4-1.9,1.4-3.3v-10.4c0-1.5,0-2.5-1.4-3.3v-0.1h3.8
			v0c0.1,0.3,0.2,0.4,0.4,0.7l0.4,0.5l9.6,12.1v-9.9c0-1.5,0-2.5-1.4-3.3v-0.1h4.6v0.1c-1.4,0.8-1.4,1.8-1.4,3.3v14.7
			c-1.9-0.6-2.7-1.5-3.8-3l-9-11.4V245.5z"/>
		<path class="st1" d="M433.6,235.4c0-1.2,0.2-3.1-1.2-3.6v-0.1h5v0.1c-1.3,0.5-1.2,2.4-1.2,3.6v9.9c0,1.2-0.2,3.1,1.2,3.6v0.1h-5
			v-0.1c1.3-0.5,1.2-2.4,1.2-3.6V235.4z"/>
		<path class="st1" d="M452.3,236.4c0.7-1.9,1.6-4,0-4.7v-0.1h3.9l-6.9,18c-1.8-1.2-2.4-1.4-3.2-3.5l-4-10.7c-0.5-1.3-0.9-2.9-2-3.7
			v-0.1h3.8l0,0.3c0,0.6,0.5,1.9,0.7,2.4l4.2,11.4L452.3,236.4z"/>
		<path class="st1" d="M462.4,246.7l3.3,0.3c1.7,0.2,3.5-0.4,4.8-1.5h0.1l-1.2,3.4h-10.9v-0.1c1.3-0.5,1.2-2.4,1.2-3.6v-9.9
			c0-1.2,0.2-3.1-1.2-3.6v-0.1h8.4c0.4,0,0.9,0.1,1.2-0.1h0.1v3.1h-0.1c-0.8-0.9-1.9-1-3.1-1c-0.9,0-1.8,0-2.7,0.2v4.9h3.1
			c0.4,0,0.8,0,1.2-0.2h0.1v2.8h-0.1c-0.4-0.8-1.5-0.7-2.3-0.7h-1.9V246.7z"/>
		<path class="st1" d="M478.7,231.7c3.5,0,5.4,1.8,5.4,4.2c0,2.3-2,4.1-4.2,4.6l3.8,4.7c1.1,1.4,2.7,2.7,4.2,3.7h-2.4
			c-1.4,0-2.3-0.3-3-1.3l-3.2-4l-2.4-3.7c2.1-0.3,4.5-1.3,4.5-3.7c0-1.9-1.6-3-3.4-2.9c-0.6,0-1.2,0.1-1.8,0.2v11.7
			c0,1.2-0.2,3.1,1.2,3.6v0.1h-5v-0.1c1.3-0.5,1.2-2.4,1.2-3.6v-9.9c0-1.2,0.2-3.1-1.2-3.6v-0.1H478.7z"/>
		<path class="st1" d="M499.2,234.8c-1-1-2.6-1.6-4.1-1.6c-1.5,0-3.4,0.6-3.4,2.4c0,3.6,9,3.5,9,8.4c0,2.8-2.9,5.4-7,5.4
			c-1.6,0-3.2-0.2-4.7-0.8l-0.8-3.3c1.5,1.3,3.7,2.2,5.7,2.2c1.5,0,3.7-0.9,3.7-2.7c0-4.1-9-3.4-9-8.9c0-3.3,3.4-4.6,6.6-4.6
			c1.3,0,2.6,0.2,3.9,0.6V234.8z"/>
		<path class="st1" d="M504.8,235.4c0-1.2,0.2-3.1-1.2-3.6v-0.1h5v0.1c-1.3,0.5-1.2,2.4-1.2,3.6v9.9c0,1.2-0.2,3.1,1.2,3.6v0.1h-5
			v-0.1c1.3-0.5,1.2-2.4,1.2-3.6V235.4z"/>
		<path class="st1" d="M518.9,245.5c0,1.5,0,2.5,1.4,3.3v0.1H515v-0.1c1.3-0.5,1.2-2.4,1.2-3.6v-11.7h-2.3c-1.1,0-2.3,0.3-3.1,1
			h-0.1l0.9-3.1h0.1c0.3,0.1,0.7,0.1,1,0.2h10.4c0.4,0,0.9,0,1.2-0.2h0.1l-0.8,3.1h-0.1c-0.3-0.9-1.4-1-2.3-1h-2.4V245.5z"/>
		<path class="st1" d="M534.7,245.5c0,1.6,0,2.4,1.3,3.3v0.1H531v-0.1c1.3-0.7,1.1-2.4,1.1-3.6v-3.9l-4.3-7c-0.7-1.2-1.2-2-2.5-2.7
			h2.4c0.8,0,1.6,0.2,2,0.7l4.2,6.8l3.2-4.9c0.4-0.7,1-1.9-0.4-2.6v-0.1h4.6l-6.4,9.7V245.5z"/>
		<g>
			<path class="st1" d="M555.7,241.8c0,1.2-0.3,2.4-0.9,3.5c-0.6,1.2-1.5,2.1-2.6,2.8c-1.1,0.7-2.2,1-3.3,1c-1.1,0-2-0.3-2.7-1
				c-0.7-0.7-1-1.6-1-2.7c0-1.2,0.3-2.3,1-3.5c0.7-1.2,1.6-2.1,2.7-2.8c1.1-0.7,2.2-1,3.3-1c1,0,1.9,0.3,2.6,1
				C555.4,239.8,555.7,240.7,555.7,241.8z M553.8,241c0-0.7-0.2-1.3-0.5-1.7s-0.8-0.6-1.4-0.6c-1.2,0-2.2,0.8-3.2,2.5
				c-1,1.7-1.5,3.3-1.5,5c0,0.8,0.2,1.3,0.6,1.7c0.4,0.4,0.9,0.6,1.4,0.6c1.1,0,2.2-0.8,3.2-2.5C553.3,244.4,553.8,242.7,553.8,241z
				"/>
			<path class="st1" d="M564.4,238.4l-0.2,0.8h-1.8l-1.4,5.3c-0.7,2.3-1.3,4-1.9,5.3c-0.8,1.8-1.7,3-2.7,3.7
				c-0.7,0.5-1.5,0.8-2.2,0.8c-0.5,0-0.9-0.1-1.2-0.4c-0.2-0.2-0.4-0.5-0.4-0.8c0-0.3,0.1-0.5,0.3-0.7c0.2-0.2,0.5-0.3,0.7-0.3
				c0.2,0,0.4,0.1,0.5,0.2c0.1,0.1,0.2,0.3,0.2,0.5s-0.1,0.3-0.2,0.5c-0.1,0.1-0.2,0.2-0.2,0.2c0,0.1,0,0.1,0.1,0.2
				c0.1,0.1,0.2,0.1,0.3,0.1c0.3,0,0.7-0.1,1-0.3c0.4-0.2,0.7-0.5,1-1c0.3-0.4,0.6-1,0.8-1.9c0.1-0.3,0.4-1.4,0.9-3.3l2.3-8.1h-2.3
				l0.2-0.8c0.7,0,1.3,0,1.5-0.1c0.3-0.1,0.6-0.3,0.8-0.5c0.2-0.3,0.5-0.7,0.9-1.4c0.4-1,0.9-1.7,1.3-2.2c0.6-0.7,1.2-1.2,1.8-1.6
				c0.6-0.4,1.2-0.5,1.8-0.5c0.6,0,1,0.2,1.4,0.5c0.4,0.3,0.5,0.6,0.5,1c0,0.3-0.1,0.5-0.3,0.7c-0.2,0.2-0.4,0.3-0.7,0.3
				c-0.2,0-0.4-0.1-0.6-0.2c-0.2-0.1-0.2-0.3-0.2-0.5c0-0.1,0-0.3,0.2-0.5c0.1-0.2,0.2-0.3,0.2-0.4c0-0.1,0-0.2-0.1-0.3
				c-0.1-0.1-0.2-0.1-0.4-0.1c-0.5,0-0.9,0.2-1.2,0.5c-0.5,0.4-0.9,1.1-1.3,2c-0.2,0.5-0.6,1.6-1.2,3.4H564.4z"/>
		</g>
	</g>
	<path class="st1" d="M479.7,60.5c-4.1,0.4-9.2-3.3-14.1-9.1c4.7,15.4,26.3,24.2,30.7,28c-8.7-16.3-6.3-23.7-11.9-28.7
		c-1.9-1.7-15.8-17.9-18.3-30.8c-1.8,11.5,6.5,24.5,10.7,30.2c-5.8-2.7-11.5-11.4-15.5-19C460.5,35.5,471,56.1,479.7,60.5z"/>
	<path class="st1" d="M521,137.1c5.1,1.2,6.2,7.4,6.2,11.7v39.5c0,4.7,0.6,12.3-4.7,14.2v0.3h19.6v-0.3c-5.2-2-4.4-9.5-4.4-14.2v-18
		h7.7c3.2,0,15.1-0.2,16.8,2.9h0.3v-11.8h-0.3c-1.2,0.6-6.7,0.6-8.2,0.6h-16.2v-19.3c3.3-0.6,6.9-0.7,10.6-0.7
		c4.8,0,16.6,0.4,19.8,4h0.3v-12h-0.3c-1.3,0.7-3.1,0.5-4.9,0.5h-41.6l0,0H502v0.3c5.5,3.1,5.4,7.2,5.4,13v39.2l-37.9-47.8l-1.4-2.1
		c-0.7-0.8-1.1-1.3-1.6-2.6v-0.1l-34.3,0v0.3c5.2,2,4.6,9.5,4.6,14.2v31.2c0,3.7,0.1,6.3-2.2,9.4c-3.4,4.9-9.3,7.3-15.1,7.3
		c-10.7,0-16.5-6.4-16.5-20.2v-27.7c0-4.7-0.6-12.2,4.6-14.2v-0.3h-19.7v0.3c5.3,2,4.6,9.5,4.6,14.2v27.7c0,7.5-0.2,14.4,5.3,20.4
		c4.7,5.1,11.9,7.3,18.8,7.3c18.1,0,27.7-10.8,27.7-23.5c0-2.1,0.1-7,0.1-9.1v-22.7c0-4.8,1.2-11,6.2-12.2c5.1,1.2,6.2,7.4,6.2,11.7
		v40.5c0,5.8,0,9.9-5.5,13.2v0.3h18.3v-0.3c-5.5-3.2-5.4-7.4-5.4-13.2v-40.1l35.5,45c4.6,5.9,7.8,9.3,15.1,11.8c0,0,0-53.9,0-57.2
		C514.9,144.5,516,138.3,521,137.1z"/>
	<path class="st1" d="M508.9,99c0.8-7-12.7-15.5-31.7-25.8c-19-10.3-30.7-22.9-35.5-27.5c-3.2-3.1-27.1-12.7-39.5-44.1
		c4.6,34.7,23.9,50.3,31.8,55.4c-6.2-0.9-12.8-1.8-27-14.4c10,16.8,18,25.6,38,33.6c-5.7,0.9-13.9-0.2-22.4-3.2
		c7.2,7,30.2,15.4,47.4,18c-2.7,8.3-24.6,25-24.8,26.8c10.4,0.4,15.1-3,16.2-2.7c0.3,1.4,0.2,4.2,1,5c2.9-0.1,10.6-4.3,11.3-5.6
		c0.7,0.3,3.3,5,4.9,4.2c1.2-1.3,3.8-9.4,4.5-11.7c0.2-0.8,0.6-1.7,0.6-1.9l3.9,7.3c0,0,7.4,4.8,8.9,5.8c-1.4,0.9-2.4,2.3-0.5,3.8
		c-1-1.4,0.3-2.5,1.4-3.2c1.1-0.4,3.2-0.9,3.9,1.8c0.1-1.7-0.3-2.6-0.9-2.9c0.9-0.4,4-1.7,4.3,0.7c0.2-1.5-0.3-2.2-1.1-2.4
		c0.9-0.3,1.8-0.4,2.1,0.1c-0.3-2-4.7-0.3-5.8,0.2c-1.6-1.5-6.2-6.8-6.2-6.8l0.1-11.7c1.7,0.2,4.3,0.6,5.6,1c5.3,1.8,9,3.7,7.3,5.4
		C510.5,103.5,509.8,100.3,508.9,99z"/>
	<g>
		<path class="st1" d="M584,276.1h2.1v0.6h-0.7v1.7h-0.8v-1.7H584V276.1z"/>
		<path class="st1" d="M586.6,278.4v-2.3h0.9l0.4,1.5l0.4-1.5h0.9v2.3h-0.7v-0.7l0-0.4l0-0.4h0l-0.4,1.5h-0.5l-0.4-1.5h0l0,0.3
			l0,0.4v0.8H586.6z"/>
	</g>
</g>
</svg>
