<svg id="Layer_1" data-name="Layer 1" xmlns="http://www.w3.org/2000/svg" viewBox="0 0 200 200"><defs><style>.cls-1{fill:#0a233f;}.cls-2{fill:#fff;}</style></defs><circle class="cls-1" cx="100" cy="99.74" r="100"/><path class="cls-2" d="M167.13,64.71a46.79,46.79,0,0,1-8.32,2.8,25.88,25.88,0,0,0,6.85-10.89h0a1.37,1.37,0,0,0-2-1.59h0A47.89,47.89,0,0,1,151,60.29a3.57,3.57,0,0,1-.8.09,3.35,3.35,0,0,1-2.22-.85A26,26,0,0,0,130.74,53a27.91,27.91,0,0,0-8.24,1.27,25.19,25.19,0,0,0-17,18.15,27.78,27.78,0,0,0-.62,9.57,1,1,0,0,1-.23.73,1,1,0,0,1-.72.33h-.09A68.13,68.13,0,0,1,57,58.05h0a1.36,1.36,0,0,0-2.23.18h0A26,26,0,0,0,59,89.83a23.38,23.38,0,0,1-5.93-2.3h0a1.36,1.36,0,0,0-2,1.17h0a26,26,0,0,0,15.18,24H65.7a23.13,23.13,0,0,1-4.38-.42h0A1.36,1.36,0,0,0,59.77,114h0a26.06,26.06,0,0,0,20.58,17.72,48,48,0,0,1-26.87,8.16h-3a2,2,0,0,0-1.95,1.5,2.06,2.06,0,0,0,1,2.27,71.27,71.27,0,0,0,35.85,9.67,72.37,72.37,0,0,0,30.64-6.5A67.54,67.54,0,0,0,138.42,130a73.48,73.48,0,0,0,13.73-23,72.65,72.65,0,0,0,4.67-25.16V81.5a4.44,4.44,0,0,1,1.65-3.45,51.41,51.41,0,0,0,10.34-11.34h0a1.36,1.36,0,0,0-1.68-2Z"/></svg>