<svg id="Layer_1" data-name="Layer 1" xmlns="http://www.w3.org/2000/svg" viewBox="0 0 200 200"><defs><style>.cls-1{fill:#0a233f;}.cls-2{fill:#fff;}</style></defs><circle class="cls-1" cx="100" cy="99.74" r="100"/><path class="cls-2" d="M100,59c13.44,0,15,0,20.34.29A28.25,28.25,0,0,1,129.68,61a16.66,16.66,0,0,1,9.55,9.56A27.67,27.67,0,0,1,141,79.92c.25,5.31.3,6.9.3,20.34s0,15-.3,20.33a27.8,27.8,0,0,1-1.73,9.35,15.52,15.52,0,0,1-3.76,5.78,15.7,15.7,0,0,1-5.79,3.77,27.73,27.73,0,0,1-9.34,1.73c-5.31.24-6.9.29-20.34.29s-15,0-20.34-.29a27.73,27.73,0,0,1-9.34-1.73,15.7,15.7,0,0,1-5.79-3.77,15.52,15.52,0,0,1-3.76-5.78A27.8,27.8,0,0,1,59,120.59c-.25-5.3-.3-6.9-.3-20.33s0-15,.3-20.34a27.67,27.67,0,0,1,1.73-9.34A16.66,16.66,0,0,1,70.32,61a28.25,28.25,0,0,1,9.34-1.73C85,59.05,86.56,59,100,59m0-9.07c-13.67,0-15.38.06-20.75.3A37.12,37.12,0,0,0,67,52.57,25.73,25.73,0,0,0,52.32,67.29,36.67,36.67,0,0,0,50,79.51c-.25,5.37-.31,7.08-.31,20.75s.06,15.38.31,20.75a36.66,36.66,0,0,0,2.34,12.21,24.58,24.58,0,0,0,5.8,8.92,24.84,24.84,0,0,0,8.92,5.8,37.12,37.12,0,0,0,12.21,2.34c5.37.24,7.08.3,20.75.3s15.38-.06,20.75-.3A37.12,37.12,0,0,0,133,147.94a24.84,24.84,0,0,0,8.92-5.8,24.58,24.58,0,0,0,5.8-8.92A36.66,36.66,0,0,0,150,121c.25-5.37.31-7.09.31-20.75s-.06-15.38-.31-20.75a36.67,36.67,0,0,0-2.34-12.22A25.73,25.73,0,0,0,133,52.57a37.12,37.12,0,0,0-12.21-2.34c-5.37-.24-7.08-.3-20.75-.3"/><path class="cls-2" d="M100,74.41a25.85,25.85,0,1,0,25.84,25.85A25.84,25.84,0,0,0,100,74.41M100,117a16.78,16.78,0,1,1,16.78-16.77A16.78,16.78,0,0,1,100,117"/><path class="cls-2" d="M132.9,73.39a6,6,0,1,1-6-6,6,6,0,0,1,6,6"/></svg>