<svg id="Layer_1" data-name="Layer 1" xmlns="http://www.w3.org/2000/svg" viewBox="0 0 200 200"><defs><style>.cls-1{fill:#0a233f;}.cls-2{fill:#fff;}</style></defs><circle class="cls-1" cx="100" cy="99.74" r="100"/><path class="cls-2" d="M136.52,49.26h-73A13.47,13.47,0,0,0,50,62.73v73.05a13.48,13.48,0,0,0,13.48,13.48h36l.06-35.74H90.28a2.18,2.18,0,0,1-2.19-2.18l0-11.52a2.19,2.19,0,0,1,2.19-2.2H99.5V86.49c0-12.91,7.89-19.95,19.41-19.95h9.46a2.19,2.19,0,0,1,2.19,2.19v9.72a2.19,2.19,0,0,1-2.19,2.19h-5.8c-6.27,0-7.48,3-7.48,7.35v9.63h13.77a2.19,2.19,0,0,1,2.17,2.45l-1.36,11.52a2.19,2.19,0,0,1-2.18,1.93H115.15l-.06,35.74h21.43A13.48,13.48,0,0,0,150,135.78V62.73A13.47,13.47,0,0,0,136.52,49.26Z"/></svg>