<?xml version="1.0" encoding="utf-8"?>
<!-- Generator: Adobe Illustrator 24.3.0, SVG Export Plug-In . SVG Version: 6.00 Build 0)  -->
<svg version="1.1" id="Layer_1" xmlns="http://www.w3.org/2000/svg" xmlns:xlink="http://www.w3.org/1999/xlink" x="0px" y="0px"
	 viewBox="0 0 294 115" style="enable-background:new 0 0 294 115;" xml:space="preserve">
<style type="text/css">
	.st0{fill:#FFFFFF;}
</style>
<g>
	<g>
		<g>
			<path class="st0" d="M51.9,33.2c-2.3,0.2-5.2-1.9-8-5.1c2.7,8.7,14.8,13.7,17.3,15.8c-4.9-9.2-3.6-13.4-6.7-16.2
				c-1.1-1-8.9-10.1-10.3-17.4c-1,6.5,3.7,13.9,6.1,17c-3.3-1.5-6.5-6.4-8.7-10.8C41.1,19.1,47,30.8,51.9,33.2z"/>
			<path class="st0" d="M75.3,76c2.9,0.7,3.5,4.2,3.5,6.6V105c0,2.6,0.4,7-2.6,8v0.2h11.1V113c-2.9-1.1-2.5-5.4-2.5-8V94.8h4.3
				c1.8,0,8.6-0.1,9.5,1.6h0.2v-6.6h-0.2c-0.7,0.4-3.8,0.4-4.7,0.4h-9.2V79.2c1.9-0.4,3.9-0.4,6-0.4c2.7,0,9.4,0.2,11.2,2.3h0.2
				v-6.8H102c-0.8,0.4-1.8,0.3-2.8,0.3H75.7v0H64.5v0.2c3.1,1.8,3,4.1,3,7.4v22.2l-21.4-27l-0.8-1.2c-0.4-0.5-0.6-0.8-0.9-1.5v-0.1
				H25.1v0.2c2.9,1.1,2.6,5.4,2.6,8v17.6c0,2.1,0.1,3.6-1.2,5.3c-1.9,2.8-5.3,4.1-8.6,4.1c-6,0-9.3-3.6-9.3-11.4V82.8
				c0-2.6-0.4-6.9,2.6-8v-0.2H0v0.2c3,1.1,2.6,5.4,2.6,8v15.6c0,4.2-0.1,8.1,3,11.5c2.6,2.9,6.7,4.1,10.6,4.1
				c10.3,0,15.7-6.1,15.7-13.3c0-1.2,0.1-3.9,0.1-5.1V82.9c0-2.7,0.7-6.2,3.5-6.9c2.9,0.7,3.5,4.2,3.5,6.6v22.9c0,3.3,0,5.6-3.1,7.4
				v0.2h10.4V113c-3.1-1.8-3-4.2-3-7.4V82.9l20.1,25.5c2.6,3.3,4.4,5.3,8.5,6.7c0,0,0-30.5,0-32.4C71.8,80.2,72.4,76.7,75.3,76z"/>
			<path class="st0" d="M68.4,55c0.4-3.9-7.2-8.8-17.9-14.6c-10.7-5.8-17.4-12.9-20.1-15.5C28.6,23.2,15.1,17.7,8.1,0
				c2.6,19.6,13.5,28.4,18,31.4c-3.5-0.5-7.2-1-15.3-8.1c5.7,9.5,10.2,14.5,21.5,19c-3.2,0.5-7.9-0.1-12.7-1.8
				c4.1,3.9,17.1,8.7,26.8,10.2c-1.5,4.7-13.9,14.1-14,15.1c5.9,0.2,8.5-1.7,9.2-1.5c0.2,0.8,0.1,2.4,0.6,2.8c1.7-0.1,6-2.4,6.4-3.2
				c0.4,0.2,1.9,2.8,2.8,2.4c0.7-0.7,2.2-5.3,2.6-6.6c0.1-0.4,0.3-1,0.4-1.1l2.2,4.2c0,0,4.2,2.7,5,3.3c-0.8,0.5-1.4,1.3-0.3,2.2
				c-0.6-0.8,0.2-1.4,0.8-1.8c0.6-0.2,1.8-0.5,2.2,1c0.1-1-0.2-1.4-0.5-1.7c0.5-0.2,2.3-0.9,2.4,0.4c0.1-0.8-0.2-1.2-0.6-1.4
				c0.5-0.2,1-0.2,1.2,0.1c-0.2-1.1-2.6-0.2-3.3,0.1C62.6,64,60,61.1,60,61.1l0.1-6.6c1,0.1,2.4,0.4,3.2,0.6c3,1,5.1,2.1,4.1,3
				C69.3,57.6,69,55.8,68.4,55z"/>
		</g>
		<g>
			<g>
				<g>
					<path class="st0" d="M122.3,110.4c0,1.2,0,2.1,1.1,2.7v0.1h-3.8v-0.1c1.1-0.7,1.1-1.5,1.1-2.7v-8.6c0-1.2,0-2.1-1.1-2.7V99h3.2
						v0c0.1,0.3,0.2,0.4,0.3,0.5l0.3,0.4l7.9,10v-8.2c0-1.2,0-2.1-1.1-2.7V99h3.8V99c-1.1,0.6-1.1,1.5-1.1,2.7v12.1
						c-1.5-0.5-2.2-1.2-3.2-2.5l-7.4-9.4V110.4z"/>
					<path class="st0" d="M151.5,105.9c0,4.4-3.7,7.6-8,7.6c-4.3,0-7.9-3.1-7.9-7.5c0-4.1,3.6-7.5,8.1-7.4
						C148.3,98.6,151.5,102,151.5,105.9z M138.1,105.8c0,3,2.1,6.1,5.5,6.1c3.3,0,5.4-2.4,5.4-5.6c0-3.2-2-6.2-5.4-6.2
						C140.2,100.2,138.1,102.6,138.1,105.8z"/>
					<path class="st0" d="M158.6,99c2.9,0,4.5,1.5,4.5,3.5c0,1.9-1.7,3.4-3.4,3.8l3.1,3.9c0.9,1.1,2.3,2.2,3.5,3h-2
						c-1.1,0-1.9-0.3-2.5-1.1l-2.6-3.3l-2-3c1.7-0.3,3.7-1.1,3.7-3.1c0-1.6-1.3-2.5-2.8-2.4c-0.5,0-1,0.1-1.5,0.2v9.7
						c0,1-0.1,2.6,1,3v0.1h-4.1v-0.1c1.1-0.4,1-2,1-3V102c0-1,0.2-2.6-1-3V99H158.6z"/>
					<path class="st0" d="M172.1,110.4c0,1.2,0,2.1,1.1,2.7v0.1H169v-0.1c1.1-0.4,1-2,1-3v-9.6H168c-0.9,0-1.9,0.2-2.6,0.9h-0.1
						l0.8-2.6h0.1c0.3,0.1,0.5,0.1,0.8,0.2h8.6c0.4,0,0.7,0,1-0.2h0.1l-0.7,2.6h-0.1c-0.3-0.8-1.1-0.9-1.9-0.9h-1.9V110.4z"/>
					<path class="st0" d="M181.9,106.3v3.9c0,1-0.1,2.5,1,3v0.1h-4.1v-0.1c1.1-0.4,1-2,1-3V102c0-1,0.2-2.5-1-3V99h4.1V99
						c-1.1,0.4-1,2-1,3v2.7h7.8V102c0-1,0.2-2.6-1-3V99h4.1V99c-1.1,0.4-1,2-1,3v8.2c0,1-0.1,2.5,1,3v0.1h-4.1v-0.1c1.1-0.4,1-2,1-3
						v-3.9H181.9z"/>
					<path class="st0" d="M205.5,110.2c0,1-0.2,2.5,0.9,3v0.1h-4.1v-0.1c1.1-0.4,1-2,1-3V102c0-1,0.1-2.6-1-3V99h6.9
						c0.4,0,0.7,0,1-0.1h0.1v2.5h-0.1c-0.7-0.8-1.6-0.8-2.5-0.8c-0.8,0-1.5,0-2.2,0.2v4h2.6c0.3,0,0.7,0,0.9-0.1h0.1v2.3H209
						c-0.3-0.6-1.3-0.6-1.9-0.6h-1.6V110.2z"/>
					<path class="st0" d="M219.3,111.6c1.5,0.1,2.7-0.4,3.8-1.3h0.1l-1.1,2.9h-8.9v-0.1c1.1-0.4,1-2,1-3V102c0-1,0.1-2.6-1-3V99h4.1
						V99c-1.1,0.4-1,2-1,3v9.4L219.3,111.6z"/>
					<path class="st0" d="M239.5,105.9c0,4.4-3.7,7.6-8,7.6c-4.3,0-7.9-3.1-7.9-7.5c0-4.1,3.6-7.5,8.1-7.4
						C236.3,98.6,239.5,102,239.5,105.9z M226.1,105.8c0,3,2.1,6.1,5.5,6.1c3.3,0,5.4-2.4,5.4-5.6c0-3.2-2-6.2-5.4-6.2
						C228.2,100.2,226.1,102.6,226.1,105.8z"/>
					<path class="st0" d="M246.4,99c2.9,0,4.5,1.5,4.5,3.5c0,1.9-1.7,3.4-3.4,3.8l3.1,3.9c0.9,1.1,2.3,2.2,3.5,3h-2
						c-1.1,0-1.9-0.3-2.5-1.1l-2.6-3.3l-2-3c1.7-0.3,3.7-1.1,3.7-3.1c0-1.6-1.3-2.5-2.8-2.4c-0.5,0-1,0.1-1.5,0.2v9.7
						c0,1-0.1,2.6,1,3v0.1h-4.1v-0.1c1.1-0.4,1-2,1-3V102c0-1,0.2-2.6-1-3V99H246.4z"/>
					<path class="st0" d="M255.9,102c0-1,0.2-2.6-1-3V99h4.1V99c-1.1,0.4-1,2-1,3v8.1c0,1-0.1,2.5,1,3v0.1h-4.1v-0.1
						c1.1-0.4,1-2,1-3V102z"/>
					<path class="st0" d="M262.8,101.9c0-1,0.2-2.6-1-2.9V99h5.3c4.9,0,8,2.7,8,7c0,4.3-3.3,7.2-8.1,7.2h-5.2v-0.1
						c1.1-0.7,1-1.8,1-3V101.9z M265,111.5c0.5,0.1,1,0.2,1.6,0.2c3.2,0,6.1-1.7,6.1-5.4c0-3.8-2.1-5.7-5.7-5.7
						c-0.6,0-1.3,0.1-1.9,0.2V111.5z"/>
					<path class="st0" d="M279.5,107.9l-1.1,3c-0.5,1.2-0.6,1.8,0.4,2.2v0.1h-4v-0.1c1.3-0.6,1.6-1.8,2.1-3.1l3.6-9
						c0.3-0.8,0.7-1.7-0.3-2V99h3.4l4.5,11.1c0.5,1.2,0.9,2.4,2.1,3.1v0.1h-4.4v-0.1c1.1-0.5,0.9-0.7,0.3-2.2l-1.2-3H279.5z
						 M282.2,100.8l-2.1,5.4h4.3L282.2,100.8z"/>
				</g>
				<g>
					<path class="st0" d="M130.9,87c-0.9,1.2-2.5,2.2-4.9,2.2c-1.7,0-3.3-0.5-4.4-1.7c-0.9-0.9-1.3-2.1-1.3-4.4v-5.5
						c0-1,0.2-2.5-1-3v-0.1h4.1v0.1c-1.1,0.4-1,2-1,3v5.5c0,3.3,1.4,4.5,3.8,4.5c1.6,0,2.7-0.7,3.4-1.7c0.5-0.6,0.4-2.5,0.4-3.2v-5
						c0-1,0.1-2.5-1-3v-0.1h3.5l0,0.1c-1.1,0.4-1,2-1,3v4C131.7,84.9,131.4,86.3,130.9,87z"/>
					<path class="st0" d="M138,86c0,1.2,0,2.1,1.1,2.7v0.1h-3.8v-0.1c1.1-0.7,1.1-1.5,1.1-2.7v-8.6c0-1.2,0-2.1-1.1-2.7v-0.1h3.2v0
						c0.1,0.3,0.2,0.4,0.3,0.5l0.3,0.4l7.9,10v-8.2c0-1.2,0-2.1-1.1-2.7v-0.1h3.8v0.1c-1.1,0.6-1.1,1.5-1.1,2.7v12.1
						c-1.5-0.5-2.2-1.2-3.2-2.5l-7.4-9.4V86z"/>
					<path class="st0" d="M153.5,77.7c0-1,0.2-2.6-1-3v-0.1h4.1v0.1c-1.1,0.4-1,2-1,3v8.1c0,1-0.1,2.5,1,3v0.1h-4.1v-0.1
						c1.1-0.4,1-2,1-3V77.7z"/>
					<path class="st0" d="M168.9,78.5c0.6-1.5,1.3-3.3,0-3.8v-0.1h3.2l-5.7,14.9c-1.5-1-2-1.2-2.6-2.9l-3.3-8.8
						c-0.4-1.1-0.7-2.4-1.7-3.1v-0.1h3.2l0,0.3c0,0.5,0.4,1.5,0.6,2l3.4,9.4L168.9,78.5z"/>
					<path class="st0" d="M177.3,87l2.7,0.3c1.4,0.1,2.9-0.3,4-1.3h0.1l-1,2.8h-9v-0.1c1.1-0.4,1-2,1-3v-8.1c0-1,0.1-2.6-1-3v-0.1
						h6.9c0.4,0,0.7,0,1-0.1h0.1V77H182c-0.7-0.8-1.6-0.9-2.5-0.9c-0.8,0-1.5,0-2.2,0.2v4h2.6c0.3,0,0.7,0,1-0.1h0.1v2.3h-0.1
						c-0.3-0.6-1.3-0.6-1.9-0.6h-1.6V87z"/>
					<path class="st0" d="M190.7,74.6c2.9,0,4.5,1.5,4.5,3.5c0,1.9-1.7,3.4-3.4,3.8l3.1,3.9c0.9,1.1,2.3,2.2,3.5,3h-2
						c-1.1,0-1.9-0.3-2.5-1.1l-2.6-3.3l-2-3c1.7-0.3,3.7-1.1,3.7-3.1c0-1.6-1.3-2.5-2.8-2.4c-0.5,0-1,0.1-1.5,0.2v9.7
						c0,1-0.1,2.6,1,3v0.1h-4.1v-0.1c1.1-0.4,1-2,1-3v-8.1c0-1,0.2-2.6-1-3v-0.1H190.7z"/>
					<path class="st0" d="M207.6,77.2c-0.8-0.9-2.2-1.4-3.4-1.4c-1.2,0-2.8,0.5-2.8,2c0,3,7.4,2.9,7.4,6.9c0,2.3-2.4,4.5-5.8,4.5
						c-1.3,0-2.6-0.2-3.9-0.6l-0.6-2.7c1.3,1.1,3,1.8,4.7,1.8c1.2,0,3.1-0.7,3.1-2.2c0-3.4-7.4-2.8-7.4-7.3c0-2.7,2.8-3.8,5.4-3.8
						c1.1,0,2.2,0.2,3.2,0.5V77.2z"/>
					<path class="st0" d="M212.2,77.7c0-1,0.2-2.6-1-3v-0.1h4.1v0.1c-1.1,0.4-1,2-1,3v8.1c0,1-0.1,2.5,1,3v0.1h-4.1v-0.1
						c1.1-0.4,1-2,1-3V77.7z"/>
					<path class="st0" d="M223.9,86c0,1.2,0,2.1,1.1,2.7v0.1h-4.3v-0.1c1.1-0.4,1-2,1-3v-9.6h-1.9c-0.9,0-1.9,0.2-2.6,0.9h-0.1
						l0.8-2.6h0.1c0.3,0.1,0.5,0.1,0.8,0.2h8.6c0.4,0,0.7,0,1-0.2h0.1l-0.7,2.6h-0.1c-0.3-0.8-1.1-0.9-1.9-0.9h-1.9V86z"/>
					<path class="st0" d="M237,86c0,1.3,0,1.9,1.1,2.7v0.1h-4.2v-0.1c1.1-0.5,0.9-1.9,0.9-3v-3.2l-3.6-5.8c-0.6-1-1-1.7-2.1-2.2h2
						c0.7,0,1.3,0.2,1.6,0.6l3.5,5.6l2.7-4c0.4-0.5,0.9-1.6-0.3-2.2v-0.1h3.8l-5.3,8V86z"/>
					<g>
						<path class="st0" d="M254.3,83c0,1-0.3,1.9-0.8,2.9c-0.5,1-1.2,1.7-2.2,2.3c-0.9,0.6-1.8,0.8-2.7,0.8c-0.9,0-1.6-0.3-2.2-0.9
							c-0.6-0.6-0.8-1.3-0.8-2.2c0-1,0.3-1.9,0.8-2.9c0.6-1,1.3-1.7,2.2-2.3c0.9-0.6,1.8-0.8,2.7-0.8c0.9,0,1.6,0.3,2.1,0.9
							C254,81.3,254.3,82.1,254.3,83z M252.7,82.3c0-0.6-0.2-1.1-0.4-1.4c-0.3-0.3-0.7-0.5-1.2-0.5c-1,0-1.9,0.7-2.7,2.1
							c-0.8,1.4-1.2,2.7-1.2,4.1c0,0.6,0.2,1.1,0.5,1.4c0.3,0.3,0.7,0.5,1.2,0.5c0.9,0,1.8-0.7,2.6-2
							C252.3,85.1,252.7,83.7,252.7,82.3z"/>
						<path class="st0" d="M261.4,80.1l-0.2,0.6h-1.5l-1.2,4.3c-0.5,1.9-1.1,3.3-1.5,4.4c-0.7,1.5-1.4,2.5-2.2,3
							c-0.6,0.4-1.2,0.6-1.8,0.6c-0.4,0-0.7-0.1-1-0.3c-0.2-0.2-0.3-0.4-0.3-0.6c0-0.2,0.1-0.4,0.3-0.5c0.2-0.2,0.4-0.2,0.6-0.2
							c0.2,0,0.3,0.1,0.4,0.2c0.1,0.1,0.2,0.2,0.2,0.4c0,0.1-0.1,0.3-0.2,0.4c-0.1,0.1-0.1,0.2-0.1,0.2c0,0.1,0,0.1,0.1,0.1
							c0.1,0,0.1,0.1,0.3,0.1c0.3,0,0.6-0.1,0.9-0.3c0.3-0.2,0.6-0.4,0.8-0.8c0.2-0.4,0.5-0.9,0.7-1.5c0.1-0.3,0.4-1.2,0.8-2.7
							l1.9-6.7h-1.9l0.1-0.6c0.6,0,1,0,1.3-0.1c0.2-0.1,0.5-0.2,0.7-0.4c0.2-0.2,0.4-0.6,0.7-1.2c0.4-0.8,0.7-1.4,1.1-1.8
							c0.5-0.6,1-1,1.5-1.3c0.5-0.3,1-0.4,1.4-0.4c0.5,0,0.9,0.1,1.2,0.4c0.3,0.3,0.4,0.5,0.4,0.8c0,0.2-0.1,0.4-0.2,0.6
							c-0.2,0.2-0.3,0.2-0.6,0.2c-0.2,0-0.4-0.1-0.5-0.2c-0.1-0.1-0.2-0.3-0.2-0.4c0-0.1,0-0.2,0.1-0.4c0.1-0.2,0.1-0.3,0.1-0.3
							c0-0.1,0-0.2-0.1-0.2c-0.1-0.1-0.2-0.1-0.3-0.1c-0.4,0-0.7,0.1-1,0.4c-0.4,0.4-0.8,0.9-1.1,1.7c-0.2,0.4-0.5,1.3-1,2.8H261.4z
							"/>
					</g>
				</g>
			</g>
		</g>
	</g>
	<g>
		<path class="st0" d="M291.1,111.9h1.2v0.3h-0.4v1h-0.4v-1h-0.4V111.9z"/>
		<path class="st0" d="M292.5,113.2v-1.3h0.5l0.2,0.8l0.2-0.8h0.5v1.3h-0.4v-0.4l0-0.2l0-0.2h0l-0.2,0.8h-0.3l-0.2-0.8h0l0,0.2
			l0,0.2v0.4H292.5z"/>
	</g>
</g>
</svg>
